<?xml version="1.0" encoding="utf-8"?>
<!-- Generator: Adobe Illustrator 16.0.4, SVG Export Plug-In . SVG Version: 6.00 Build 0)  -->
<!DOCTYPE svg PUBLIC "-//W3C//DTD SVG 1.1//EN" "http://www.w3.org/Graphics/SVG/1.1/DTD/svg11.dtd">
<svg version="1.1" id="Calque_1" xmlns:xl="http://www.w3.org/1999/xlink"
	 xmlns="http://www.w3.org/2000/svg" xmlns:xlink="http://www.w3.org/1999/xlink" x="0px" y="0px" width="800px" height="450px"
	 viewBox="0 0 800 450" enable-background="new 0 0 800 450" xml:space="preserve">
<g enable-background="new    ">
	<path fill="#606060" d="M316.181,82.908h-3.427l2.375-12.383c0.584-3.037,0.039-4.361-1.713-4.361
		c-3.583,0-7.554,7.593-8.45,12.383l-0.818,4.361h-3.427l1.947-10.125c0.506-2.765,1.207-6.386,1.713-9.229h3.388
		c-0.233,1.285-0.779,3.505-2.142,7.633h0.078c1.831-4.089,4.907-8.022,8.957-8.022c3.583,0,4.79,2.531,4.05,6.581L316.181,82.908z"
		/>
	<path fill="#606060" d="M329.689,83.259c-4.867,0-7.087-2.453-7.087-6.893c0-7.71,4.906-13.162,11.215-13.162
		c5.101,0,7.204,2.882,7.204,6.971C341.021,78.157,335.531,83.259,329.689,83.259z M333.272,66.164c-4.245,0-7.087,4.75-7.087,9.618
		c0,2.882,1.168,4.478,4.088,4.478c3.777,0,7.087-4.049,7.087-9.695C337.361,67.722,336.076,66.164,333.272,66.164z"/>
	<path fill="#606060" d="M370.69,82.908h-3.466l2.375-12.383c0.584-3.037,0.039-4.4-1.558-4.4c-3.31,0-7.36,7.165-8.373,12.422
		l-0.817,4.361h-3.427l2.375-12.383c0.584-3.037,0.078-4.4-1.596-4.4c-3.271,0-7.321,7.165-8.333,12.422l-0.817,4.361h-3.427
		l1.947-10.125c0.545-2.881,1.207-6.386,1.713-9.229h3.388c-0.233,1.285-0.779,3.544-2.142,7.633h0.078
		c1.791-4.05,4.828-8.022,8.8-8.022c2.492,0,3.894,1.363,3.894,3.777c0,1.207-0.312,2.337-0.935,4.284l0.078,0.038
		c1.791-4.166,4.828-8.1,8.8-8.1c3.504,0,4.712,2.531,3.933,6.581L370.69,82.908z"/>
</g>
<g enable-background="new    ">
	<path fill="#606060" d="M409.719,82.908h-3.583l-3.427-19.354h3.699l1.791,11.371c0.195,1.207,0.352,2.569,0.429,3.738h0.039
		l8.177-15.927l3.232,1.129L409.719,82.908z"/>
	<path fill="#606060" d="M434.326,82.908h-3.467c0.352-1.675,1.092-4.244,2.26-7.866l-0.078-0.039
		c-1.402,2.999-4.322,8.295-9.035,8.295c-2.803,0-4.322-1.792-4.322-5.88c0-7.127,3.699-14.175,12.15-14.175
		c2.219,0,4.283,0.233,6.074,0.584C435.844,74.652,435.144,78.274,434.326,82.908z M431.25,66.008
		c-5.764,0-8.021,5.958-8.021,10.748c0,2.531,0.777,3.543,1.985,3.543c3.66,0,7.632-7.749,8.528-12.383l0.271-1.558
		C433.235,66.164,432.34,66.008,431.25,66.008z"/>
	<path fill="#606060" d="M444.174,82.908h-3.426l5.412-28.427h3.427L444.174,82.908z"/>
	<path fill="#606060" d="M454.375,74.38c-0.117,0.585-0.195,1.558-0.195,2.259c0,2.998,1.052,3.777,4.167,3.777
		c1.83,0,3.777-0.429,5.452-1.129v2.804c-1.869,0.739-4.129,1.168-6.659,1.168c-4.439,0-6.503-1.908-6.503-6.27
		c0-7.516,4.166-13.785,10.592-13.785c4.127,0,5.686,2.103,5.686,4.4C466.914,71.771,462.669,74.068,454.375,74.38z M460.839,65.853
		c-3.076,0-5.14,2.687-6.036,5.958c5.997-0.234,8.645-1.441,8.645-3.777C463.447,66.631,462.396,65.853,460.839,65.853z"/>
	<path fill="#606060" d="M484.707,82.908h-3.428c0.273-1.285,0.779-3.505,2.143-7.633h-0.078c-1.83,4.089-4.867,8.022-8.918,8.022
		c-3.582,0-4.828-2.531-4.049-6.581l2.492-13.162h3.465l-2.375,12.383c-0.584,3.038-0.039,4.361,1.674,4.361
		c3.583,0,7.594-7.593,8.49-12.383l0.816-4.361h3.428L484.707,82.908z"/>
	<path fill="#606060" d="M503.783,66.592c-3.582-1.012-7.398,6.581-8.411,11.955l-0.817,4.361h-3.428l3.661-19.354h3.349
		c-0.311,1.675-0.856,3.738-1.986,7.126l0.078,0.039c2.182-4.712,4.518-8.139,8.256-7.516L503.783,66.592z"/>
</g>
<g enable-background="new    ">
	<path fill="#606060" d="M296.974,128.625c0-8.744,5.4-11.83,15.087-11.83h17.402c6.429,0,8.915-2.143,9.344-9.43h4.458
		c0.428,7.543,2.571,9.43,9.258,9.43h11.915c7.973,0,15.002,2.572,15.002,11.83v1.372h-4.029c0-6.172-2.742-8.229-10.629-8.229
		h-11.83c-6.516,0-10.716-2.486-11.83-7.972h-0.086c-0.857,5.4-5.4,7.972-11.915,7.972h-17.402c-7.887,0-10.544,2.058-10.544,8.229
		h-4.2V128.625z"/>
</g>
<g enable-background="new    ">
	<path fill="#606060" d="M490.192,209.825c0,18.601-11.768,24.865-31.887,24.865h-40.618c-14.046,0-19.55,4.555-20.499,21.068h-8.73
		c-0.949-17.083-5.694-21.068-20.499-21.068h-27.901c-15.943,0-31.887-5.125-31.887-24.865v-2.847h7.402
		c0,13.855,6.453,18.411,23.726,18.411h27.711c13.666,0,23.156,5.314,25.624,17.842h0.189c1.898-12.338,12.147-17.842,25.813-17.842
		h40.428c17.272,0,23.536-4.556,23.536-18.411h7.592V209.825z"/>
</g>
<g enable-background="new    ">
	<path fill="#606060" d="M351.486,295.426h-3.465c0.35-1.675,1.09-4.244,2.258-7.866l-0.078-0.039
		c-1.402,2.999-4.323,8.295-9.034,8.295c-2.804,0-4.323-1.792-4.323-5.88c0-7.127,3.7-14.175,12.149-14.175
		c2.22,0,4.284,0.233,6.075,0.584C353.005,287.17,352.304,290.792,351.486,295.426z M348.41,278.525
		c-5.763,0-8.022,5.958-8.022,10.748c0,2.531,0.779,3.543,1.986,3.543c3.66,0,7.632-7.749,8.528-12.383l0.272-1.558
		C350.396,278.682,349.5,278.525,348.41,278.525z"/>
	<path fill="#606060" d="M370.524,278.798h-5.257l-1.908,10.125c-0.545,2.998-0.156,3.816,1.752,3.816
		c1.09,0,1.908-0.117,2.687-0.312l-0.234,2.92c-1.129,0.234-2.492,0.39-3.621,0.39c-3.972,0-4.984-1.869-4.167-6.27l2.064-10.67
		h-3.933l0.545-2.726h3.894l1.207-6.27l3.622-0.817l-1.363,7.087h5.257L370.524,278.798z"/>
	<path fill="#606060" d="M384.696,278.798h-5.257l-1.908,10.125c-0.545,2.998-0.155,3.816,1.752,3.816
		c1.09,0,1.908-0.117,2.687-0.312l-0.233,2.92c-1.129,0.234-2.492,0.39-3.622,0.39c-3.972,0-4.984-1.869-4.167-6.27l2.063-10.67
		h-3.933l0.545-2.726h3.894l1.207-6.27l3.622-0.817l-1.363,7.087h5.257L384.696,278.798z"/>
	<path fill="#606060" d="M398.907,279.109c-3.583-1.012-7.398,6.581-8.411,11.955l-0.817,4.361h-3.427l3.66-19.354h3.349
		c-0.312,1.675-0.856,3.738-1.986,7.126l0.078,0.039c2.181-4.712,4.517-8.139,8.255-7.516L398.907,279.109z"/>
	<path fill="#606060" d="M403.267,295.426h-3.427l3.699-19.354h3.428L403.267,295.426z M406.148,272.879
		c-1.285,0-2.22-1.012-2.142-2.219c0.039-1.324,1.168-2.337,2.453-2.337c1.246,0,2.22,0.974,2.142,2.181
		C408.523,271.828,407.395,272.879,406.148,272.879z"/>
	<path fill="#606060" d="M415.843,295.737c-2.298,0-4.283-0.272-6.036-0.662l5.336-28.076h3.465l-1.83,9.424
		c-0.272,1.401-0.74,3.076-2.142,7.438l0.078,0.039c1.985-4.595,5.022-8.217,8.995-8.217c2.804,0,4.322,1.792,4.322,5.88
		C428.031,288.689,424.332,295.737,415.843,295.737z M422.502,278.682c-3.66,0-7.594,7.749-8.489,12.305l-0.312,1.636
		c0.818,0.233,1.674,0.351,2.765,0.351c5.725,0,8.022-5.958,8.022-10.748C424.488,279.693,423.709,278.682,422.502,278.682z"/>
	<path fill="#606060" d="M446.174,295.426h-3.426c0.271-1.285,0.778-3.505,2.141-7.633h-0.077c-1.83,4.089-4.868,8.022-8.917,8.022
		c-3.583,0-4.829-2.531-4.051-6.581l2.492-13.162h3.467l-2.376,12.383c-0.584,3.038-0.039,4.361,1.675,4.361
		c3.582,0,7.593-7.593,8.488-12.383l0.818-4.361h3.427L446.174,295.426z"/>
	<path fill="#606060" d="M465.212,278.798h-5.257l-1.908,10.125c-0.545,2.998-0.155,3.816,1.752,3.816
		c1.091,0,1.908-0.117,2.688-0.312l-0.233,2.92c-1.13,0.234-2.492,0.39-3.622,0.39c-3.972,0-4.984-1.869-4.166-6.27l2.063-10.67
		h-3.933l0.545-2.726h3.895l1.207-6.27l3.621-0.817l-1.363,7.087h5.258L465.212,278.798z"/>
</g>
<g enable-background="new    ">
	<path d="M36.069,185.51c-0.857,0.547-2.756,1.277-5.178,1.277c-5.438,0-8.976-4.514-8.976-11.262
		c0-6.793,3.799-11.717,9.684-11.717c1.937,0,3.65,0.593,4.544,1.14l-0.745,3.101c-0.782-0.547-2.012-1.049-3.799-1.049
		c-4.134,0-6.369,3.739-6.369,8.344c0,5.106,2.682,8.252,6.257,8.252c1.862,0,3.091-0.593,4.022-1.095L36.069,185.51z"/>
	<path d="M55.995,175.115c0,8.161-4.619,11.717-8.977,11.717c-4.879,0-8.641-4.377-8.641-11.353c0-7.386,3.948-11.718,8.939-11.718
		C52.493,163.762,55.995,168.367,55.995,175.115z M41.692,175.343c0,4.833,2.272,8.48,5.475,8.48c3.129,0,5.475-3.602,5.475-8.571
		c0-3.739-1.527-8.48-5.4-8.48C43.368,166.771,41.692,171.148,41.692,175.343z"/>
	<path d="M60.127,170.237c0-2.28-0.038-4.149-0.149-5.973h2.868l0.149,3.557h0.112c1.006-2.098,2.682-4.058,5.662-4.058
		c2.458,0,4.32,1.824,5.103,4.423h0.075c0.559-1.231,1.266-2.188,2.011-2.873c1.08-1.003,2.272-1.55,3.985-1.55
		c2.384,0,5.922,1.915,5.922,9.575v12.994h-3.203v-12.493c0-4.24-1.267-6.793-3.911-6.793c-1.862,0-3.315,1.687-3.874,3.647
		c-0.149,0.547-0.261,1.277-0.261,2.006v13.632h-3.203v-13.222c0-3.511-1.267-6.064-3.762-6.064c-2.048,0-3.538,2.006-4.06,4.012
		c-0.187,0.593-0.261,1.277-0.261,1.96v13.313h-3.203V170.237z"/>
	<path d="M91.188,170.237c0-2.28-0.038-4.149-0.149-5.973h2.868l0.149,3.557h0.112c1.006-2.098,2.682-4.058,5.662-4.058
		c2.458,0,4.32,1.824,5.103,4.423h0.075c0.559-1.231,1.266-2.188,2.011-2.873c1.08-1.003,2.272-1.55,3.985-1.55
		c2.384,0,5.922,1.915,5.922,9.575v12.994h-3.203v-12.493c0-4.24-1.267-6.793-3.911-6.793c-1.862,0-3.315,1.687-3.874,3.647
		c-0.149,0.547-0.261,1.277-0.261,2.006v13.632h-3.203v-13.222c0-3.511-1.267-6.064-3.762-6.064c-2.048,0-3.538,2.006-4.06,4.012
		c-0.187,0.593-0.261,1.277-0.261,1.96v13.313h-3.203V170.237z"/>
	<path d="M124.074,176.027c0.075,5.426,2.905,7.66,6.183,7.66c2.347,0,3.762-0.501,4.991-1.14l0.559,2.872
		c-1.155,0.639-3.129,1.368-5.997,1.368c-5.55,0-8.865-4.468-8.865-11.125c0-6.656,3.203-11.9,8.455-11.9
		c5.885,0,7.449,6.337,7.449,10.396c0,0.821-0.075,1.459-0.112,1.869H124.074z M133.684,173.155c0.037-2.553-0.857-6.52-4.544-6.52
		c-3.315,0-4.768,3.739-5.028,6.52H133.684z"/>
	<path d="M140.908,170.237c0-2.28-0.038-4.149-0.149-5.973h2.905l0.187,3.647h0.074c0.894-2.097,2.98-4.149,5.959-4.149
		c2.496,0,6.369,1.824,6.369,9.393v13.176h-3.277V173.61c0-3.556-1.081-6.52-4.172-6.52c-2.16,0-3.836,1.869-4.395,4.104
		c-0.149,0.501-0.224,1.185-0.224,1.869v13.268h-3.277V170.237z"/>
	<path d="M174.428,185.51c-0.857,0.547-2.756,1.277-5.178,1.277c-5.438,0-8.976-4.514-8.976-11.262
		c0-6.793,3.799-11.717,9.684-11.717c1.937,0,3.65,0.593,4.544,1.14l-0.745,3.101c-0.782-0.547-2.012-1.049-3.799-1.049
		c-4.134,0-6.369,3.739-6.369,8.344c0,5.106,2.682,8.252,6.257,8.252c1.862,0,3.091-0.593,4.022-1.095L174.428,185.51z"/>
	<path d="M179.865,176.027c0.075,5.426,2.905,7.66,6.183,7.66c2.347,0,3.762-0.501,4.991-1.14l0.559,2.872
		c-1.155,0.639-3.129,1.368-5.997,1.368c-5.55,0-8.865-4.468-8.865-11.125c0-6.656,3.203-11.9,8.455-11.9
		c5.885,0,7.449,6.337,7.449,10.396c0,0.821-0.075,1.459-0.112,1.869H179.865z M189.475,173.155c0.037-2.553-0.857-6.52-4.544-6.52
		c-3.315,0-4.768,3.739-5.028,6.52H189.475z M190.257,154.735l-4.544,6.52h-2.346l3.277-6.52H190.257z"/>
</g>
<g enable-background="new    ">
	<path fill="#FC0079" d="M204.781,172.972l17.282-10.897v3.146l-14.563,8.937v0.091l14.563,8.936v3.146l-17.282-10.897V172.972z"/>
	<path fill="#FC0079" d="M242.807,153.96v26.672c0,1.96,0.037,4.195,0.149,5.699h-2.942l-0.149-3.83h-0.075
		c-1.005,2.462-3.203,4.332-6.146,4.332c-4.358,0-7.71-4.514-7.71-11.216c-0.038-7.34,3.688-11.854,8.083-11.854
		c2.756,0,4.619,1.596,5.438,3.374h0.074V153.96H242.807z M239.529,173.246c0-0.501-0.037-1.185-0.149-1.687
		c-0.484-2.553-2.272-4.65-4.73-4.65c-3.39,0-5.401,3.647-5.401,8.526c0,4.468,1.788,8.162,5.326,8.162
		c2.198,0,4.209-1.778,4.805-4.788c0.112-0.547,0.149-1.094,0.149-1.732V173.246z"/>
	<path fill="#FC0079" d="M258.226,186.331l-0.261-2.781h-0.112c-1.005,1.732-2.942,3.283-5.513,3.283
		c-3.65,0-5.512-3.146-5.512-6.337c0-5.334,3.874-8.252,10.839-8.207v-0.456c0-1.824-0.41-5.106-4.097-5.106
		c-1.676,0-3.427,0.638-4.693,1.641l-0.745-2.645c1.49-1.185,3.65-1.96,5.922-1.96c5.513,0,6.854,4.605,6.854,9.028v8.252
		c0,1.915,0.075,3.785,0.298,5.289H258.226z M257.741,175.069c-3.576-0.091-7.635,0.684-7.635,4.97c0,2.599,1.415,3.83,3.091,3.83
		c2.347,0,3.836-1.824,4.358-3.693c0.112-0.41,0.186-0.866,0.186-1.276V175.069z"/>
	<path fill="#FC0079" d="M269.994,157.926v6.337h4.693v3.055h-4.693v11.9c0,2.735,0.633,4.286,2.458,4.286
		c0.856,0,1.49-0.137,1.899-0.274l0.149,3.009c-0.633,0.319-1.639,0.547-2.905,0.547c-1.527,0-2.756-0.593-3.538-1.687
		c-0.931-1.186-1.267-3.146-1.267-5.745v-12.037h-2.793v-3.055h2.793v-5.289L269.994,157.926z"/>
	<path fill="#FC0079" d="M279.975,176.027c0.075,5.426,2.905,7.66,6.183,7.66c2.347,0,3.762-0.501,4.991-1.14l0.559,2.872
		c-1.155,0.639-3.129,1.368-5.997,1.368c-5.55,0-8.865-4.468-8.865-11.125c0-6.656,3.203-11.9,8.455-11.9
		c5.885,0,7.449,6.337,7.449,10.396c0,0.821-0.075,1.459-0.112,1.869H279.975z M289.585,173.155c0.037-2.553-0.857-6.52-4.544-6.52
		c-3.315,0-4.768,3.739-5.028,6.52H289.585z"/>
</g>
<g enable-background="new    ">
</g>
<g enable-background="new    ">
	<path fill="#5524CE" d="M305.411,186.331v-19.012h-2.533v-3.055h2.533v-1.048c0-3.101,0.559-5.927,2.085-7.706
		c1.229-1.459,2.868-2.051,4.396-2.051c1.154,0,2.16,0.319,2.794,0.638l-0.447,3.1c-0.484-0.273-1.154-0.501-2.086-0.501
		c-2.794,0-3.501,3.009-3.501,6.383v1.185h4.357v3.055h-4.357v19.012H305.411z"/>
	<path fill="#5524CE" d="M315.95,171.148c0-2.599-0.037-4.833-0.148-6.885h2.868l0.111,4.332h0.149
		c0.819-2.963,2.793-4.833,4.99-4.833c0.373,0,0.634,0.046,0.932,0.137v3.784c-0.335-0.091-0.671-0.137-1.117-0.137
		c-2.31,0-3.948,2.143-4.396,5.152c-0.074,0.547-0.148,1.186-0.148,1.869v11.763h-3.241V171.148z"/>
	<path fill="#5524CE" d="M344.071,175.115c0,8.161-4.619,11.717-8.977,11.717c-4.879,0-8.642-4.377-8.642-11.353
		c0-7.386,3.948-11.718,8.939-11.718C340.57,163.762,344.071,168.367,344.071,175.115z M329.769,175.343
		c0,4.833,2.271,8.48,5.476,8.48c3.128,0,5.475-3.602,5.475-8.571c0-3.739-1.527-8.48-5.4-8.48
		C331.444,166.771,329.769,171.148,329.769,175.343z"/>
	<path fill="#5524CE" d="M348.203,170.237c0-2.28-0.037-4.149-0.148-5.973h2.868l0.148,3.557h0.112
		c1.005-2.098,2.682-4.058,5.661-4.058c2.458,0,4.32,1.824,5.103,4.423h0.074c0.56-1.231,1.267-2.188,2.012-2.873
		c1.08-1.003,2.272-1.55,3.985-1.55c2.384,0,5.922,1.915,5.922,9.575v12.994h-3.203v-12.493c0-4.24-1.266-6.793-3.91-6.793
		c-1.862,0-3.315,1.687-3.874,3.647c-0.149,0.547-0.261,1.277-0.261,2.006v13.632h-3.203v-13.222c0-3.511-1.267-6.064-3.762-6.064
		c-2.049,0-3.539,2.006-4.061,4.012c-0.186,0.593-0.261,1.277-0.261,1.96v13.313h-3.203V170.237z"/>
	<path fill="#5524CE" d="M378.036,170.966v-2.736h19.219v2.736H378.036z M378.036,179.902v-2.735h19.219v2.735H378.036z"/>
	<path fill="#5524CE" d="M403.882,155.1l-0.633,10.942h-2.012l-0.596-10.942H403.882z M409.432,155.1l-0.633,10.942h-1.974
		l-0.634-10.942H409.432z"/>
	<path fill="#5524CE" d="M420.083,160.434h-0.074l-4.209,2.781l-0.633-3.055l5.289-3.465h2.793v29.636h-3.166V160.434z"/>
	<path fill="#5524CE" d="M447.793,156.695v2.645l-10.541,26.991h-3.39l10.504-26.216v-0.091h-11.845v-3.329H447.793z"/>
	<path fill="#5524CE" d="M451.962,181.726c0.932,0.729,3.092,1.87,5.364,1.87c4.208,0,5.512-3.283,5.475-5.745
		c-0.037-4.149-3.091-5.927-6.257-5.927h-1.825v-3.009h1.825c2.384,0,5.4-1.505,5.4-5.015c0-2.371-1.229-4.468-4.246-4.468
		c-1.937,0-3.799,1.048-4.842,1.96l-0.857-2.918c1.267-1.14,3.725-2.28,6.332-2.28c4.768,0,6.928,3.465,6.928,7.067
		c0,3.055-1.489,5.654-4.469,6.976v0.091c2.979,0.729,5.4,3.465,5.4,7.614c0,4.742-3.017,8.891-8.827,8.891
		c-2.72,0-5.104-1.048-6.295-2.006L451.962,181.726z"/>
	<path fill="#5524CE" d="M484.104,159.522c-0.67-0.046-1.526,0-2.458,0.182c-5.14,1.049-7.858,5.654-8.418,10.532h0.112
		c1.154-1.87,3.166-3.419,5.848-3.419c4.283,0,7.301,3.784,7.301,9.574c0,5.426-3.018,10.441-8.046,10.441
		c-5.177,0-8.566-4.924-8.566-12.629c0-5.836,1.713-10.441,4.097-13.359c2.012-2.417,4.693-3.921,7.748-4.377
		c0.968-0.182,1.787-0.228,2.383-0.228V159.522z M483.173,176.62c0-4.24-1.974-6.793-4.991-6.793c-1.974,0-3.799,1.505-4.693,3.647
		c-0.223,0.456-0.372,1.049-0.372,1.778c0.074,4.878,1.899,8.48,5.326,8.48C481.273,183.732,483.173,180.86,483.173,176.62z"/>
	<path fill="#5524CE" d="M492.854,155.1l-0.633,10.942h-2.012l-0.596-10.942H492.854z M498.404,155.1l-0.633,10.942h-1.974
		l-0.634-10.942H498.404z"/>
</g>
<g enable-background="new    ">
	<path fill="#FC0079" d="M520.38,175.48l-17.283,10.851v-3.146l14.676-8.936v-0.091l-14.676-8.937v-3.146l17.283,10.852V175.48z"/>
</g>
<g enable-background="new    ">
	<path d="M527.38,176.027c0.074,5.426,2.905,7.66,6.183,7.66c2.347,0,3.763-0.501,4.991-1.14l0.559,2.872
		c-1.154,0.639-3.128,1.368-5.996,1.368c-5.55,0-8.865-4.468-8.865-11.125c0-6.656,3.203-11.9,8.455-11.9
		c5.885,0,7.449,6.337,7.449,10.396c0,0.821-0.074,1.459-0.111,1.869H527.38z M536.989,173.155c0.038-2.553-0.856-6.52-4.544-6.52
		c-3.314,0-4.768,3.739-5.028,6.52H536.989z"/>
	<path d="M544.214,170.237c0-2.28-0.037-4.149-0.148-5.973h2.905l0.186,3.647h0.075c0.894-2.097,2.979-4.149,5.959-4.149
		c2.496,0,6.369,1.824,6.369,9.393v13.176h-3.277V173.61c0-3.556-1.08-6.52-4.172-6.52c-2.16,0-3.836,1.869-4.396,4.104
		c-0.148,0.501-0.223,1.185-0.223,1.869v13.268h-3.278V170.237z"/>
	<path d="M578.85,160.434h-0.074l-4.209,2.781l-0.633-3.055l5.289-3.465h2.793v29.636h-3.166V160.434z"/>
	<path d="M606.56,156.695v2.645l-10.541,26.991h-3.39l10.504-26.216v-0.091h-11.845v-3.329H606.56z"/>
	<path d="M610.729,181.726c0.932,0.729,3.092,1.87,5.364,1.87c4.208,0,5.512-3.283,5.475-5.745
		c-0.037-4.149-3.091-5.927-6.257-5.927h-1.825v-3.009h1.825c2.384,0,5.4-1.505,5.4-5.015c0-2.371-1.229-4.468-4.246-4.468
		c-1.937,0-3.799,1.048-4.842,1.96l-0.857-2.918c1.267-1.14,3.725-2.28,6.332-2.28c4.768,0,6.928,3.465,6.928,7.067
		c0,3.055-1.489,5.654-4.469,6.976v0.091c2.979,0.729,5.4,3.465,5.4,7.614c0,4.742-3.017,8.891-8.827,8.891
		c-2.72,0-5.104-1.048-6.295-2.006L610.729,181.726z"/>
	<path d="M642.871,159.522c-0.671-0.046-1.527,0-2.459,0.182c-5.14,1.049-7.858,5.654-8.418,10.532h0.112
		c1.154-1.87,3.166-3.419,5.848-3.419c4.283,0,7.3,3.784,7.3,9.574c0,5.426-3.017,10.441-8.045,10.441
		c-5.177,0-8.566-4.924-8.566-12.629c0-5.836,1.713-10.441,4.097-13.359c2.012-2.417,4.693-3.921,7.747-4.377
		c0.969-0.182,1.788-0.228,2.385-0.228V159.522z M641.939,176.62c0-4.24-1.974-6.793-4.991-6.793c-1.974,0-3.799,1.505-4.693,3.647
		c-0.223,0.456-0.372,1.049-0.372,1.778c0.074,4.878,1.899,8.48,5.326,8.48C640.04,183.732,641.939,180.86,641.939,176.62z"/>
</g>
<g enable-background="new    ">
	<path fill="#FC0079" d="M648.94,172.972l17.283-10.897v3.146l-14.563,8.937v0.091l14.563,8.936v3.146l-17.283-10.897V172.972z"/>
	<path fill="#FC0079" d="M668.643,188.155l10.392-33.055h2.533l-10.43,33.055H668.643z"/>
	<path fill="#FC0079" d="M699.741,153.96v26.672c0,1.96,0.037,4.195,0.149,5.699h-2.943l-0.148-3.83h-0.074
		c-1.006,2.462-3.203,4.332-6.146,4.332c-4.357,0-7.71-4.514-7.71-11.216c-0.037-7.34,3.688-11.854,8.083-11.854
		c2.756,0,4.618,1.596,5.438,3.374h0.075V153.96H699.741z M696.464,173.246c0-0.501-0.037-1.185-0.149-1.687
		c-0.484-2.553-2.271-4.65-4.73-4.65c-3.39,0-5.4,3.647-5.4,8.526c0,4.468,1.788,8.162,5.326,8.162c2.197,0,4.209-1.778,4.805-4.788
		c0.112-0.547,0.149-1.094,0.149-1.732V173.246z"/>
	<path fill="#FC0079" d="M715.16,186.331l-0.261-2.781h-0.111c-1.006,1.732-2.943,3.283-5.513,3.283
		c-3.65,0-5.513-3.146-5.513-6.337c0-5.334,3.874-8.252,10.839-8.207v-0.456c0-1.824-0.41-5.106-4.098-5.106
		c-1.676,0-3.427,0.638-4.692,1.641l-0.745-2.645c1.489-1.185,3.65-1.96,5.922-1.96c5.513,0,6.854,4.605,6.854,9.028v8.252
		c0,1.915,0.074,3.785,0.298,5.289H715.16z M714.676,175.069c-3.575-0.091-7.636,0.684-7.636,4.97c0,2.599,1.416,3.83,3.092,3.83
		c2.347,0,3.836-1.824,4.357-3.693c0.112-0.41,0.187-0.866,0.187-1.276V175.069z"/>
	<path fill="#FC0079" d="M726.928,157.926v6.337h4.693v3.055h-4.693v11.9c0,2.735,0.634,4.286,2.458,4.286
		c0.857,0,1.49-0.137,1.9-0.274l0.148,3.009c-0.633,0.319-1.639,0.547-2.905,0.547c-1.527,0-2.756-0.593-3.538-1.687
		c-0.932-1.186-1.267-3.146-1.267-5.745v-12.037h-2.793v-3.055h2.793v-5.289L726.928,157.926z"/>
	<path fill="#FC0079" d="M736.909,176.027c0.074,5.426,2.905,7.66,6.183,7.66c2.347,0,3.763-0.501,4.991-1.14l0.559,2.872
		c-1.154,0.639-3.128,1.368-5.996,1.368c-5.55,0-8.865-4.468-8.865-11.125c0-6.656,3.203-11.9,8.455-11.9
		c5.885,0,7.449,6.337,7.449,10.396c0,0.821-0.074,1.459-0.111,1.869H736.909z M746.519,173.155c0.038-2.553-0.856-6.52-4.544-6.52
		c-3.314,0-4.768,3.739-5.028,6.52H746.519z"/>
	<path fill="#FC0079" d="M770.766,175.48l-17.283,10.851v-3.146l14.676-8.936v-0.091l-14.676-8.937v-3.146l17.283,10.852V175.48z"/>
</g>
<g enable-background="new    ">
	<path fill="#606060" d="M408.304,128.625c0-8.744,5.4-11.83,15.087-11.83h17.402c6.429,0,8.915-2.143,9.344-9.43h4.458
		c0.428,7.543,2.571,9.43,9.258,9.43h11.915c7.973,0,15.002,2.572,15.002,11.83v1.372h-4.029c0-6.172-2.742-8.229-10.629-8.229
		h-11.83c-6.516,0-10.716-2.486-11.83-7.972h-0.086c-0.857,5.4-5.4,7.972-11.915,7.972h-17.402c-7.887,0-10.544,2.058-10.544,8.229
		h-4.2V128.625z"/>
</g>
</svg>
