<?xml version="1.0" encoding="utf-8"?>
<!-- Generator: Adobe Illustrator 15.1.0, SVG Export Plug-In . SVG Version: 6.00 Build 0)  -->
<!DOCTYPE svg PUBLIC "-//W3C//DTD SVG 1.1//EN" "http://www.w3.org/Graphics/SVG/1.1/DTD/svg11.dtd">
<svg version="1.1" id="Calque_1" xmlns="http://www.w3.org/2000/svg" xmlns:xlink="http://www.w3.org/1999/xlink" x="0px" y="0px"
	 width="640px" height="480px" viewBox="0 0 640 480" enable-background="new 0 0 640 480" xml:space="preserve">
<g>
	<g>
		<defs>
			<rect id="SVGID_1_" x="103" y="104" width="434" height="272"/>
		</defs>
		<clipPath id="SVGID_2_">
			<use xlink:href="#SVGID_1_"  overflow="visible"/>
		</clipPath>
		<path clip-path="url(#SVGID_2_)" fill="#FFFFFF" d="M61.5,71.5h559.2v782.92H61.5V71.5z M61.5,71.5"/>
	</g>
	<path fill="none" stroke="#000000" stroke-miterlimit="10" stroke-dasharray="4,4" d="M213,115h225c2.762,0,5,2.239,5,5v240
		c0,2.762-2.238,5-5,5H213c-2.761,0-5-2.238-5-5l0,0V120C208,117.239,210.239,115,213,115L213,115z M213,115"/>
	<path d="M213.449,121.46c0,1.162,0.293,2.077,0.879,2.744c0.586,0.664,1.392,0.996,2.416,0.996c0.828,0,1.506-0.246,2.036-0.737
		c0.53-0.491,0.859-1.129,0.988-1.914h-1.494c-0.099,0.371-0.223,0.649-0.373,0.835c-0.271,0.345-0.664,0.518-1.18,0.518
		c-0.503,0-0.918-0.201-1.244-0.603c-0.327-0.402-0.49-1.006-0.49-1.814c0-0.807,0.155-1.432,0.464-1.873
		c0.31-0.441,0.732-0.662,1.268-0.662c0.526,0,0.923,0.156,1.191,0.469c0.149,0.176,0.272,0.437,0.368,0.781h1.504
		c-0.022-0.449-0.187-0.896-0.493-1.343c-0.554-0.794-1.43-1.191-2.628-1.191c-0.896,0-1.633,0.296-2.212,0.889
		C213.783,119.235,213.449,120.204,213.449,121.46L213.449,121.46L213.449,121.46z M223.259,124.014c-0.407,0-0.72-0.145-0.94-0.434
		c-0.22-0.289-0.33-0.7-0.33-1.233s0.11-0.943,0.33-1.231s0.533-0.432,0.94-0.432s0.719,0.144,0.938,0.432s0.327,0.698,0.327,1.231
		s-0.109,0.944-0.327,1.233C223.978,123.869,223.666,124.014,223.259,124.014L223.259,124.014L223.259,124.014z M225.983,122.346
		c0-0.768-0.225-1.433-0.674-1.995c-0.449-0.563-1.131-0.844-2.046-0.844s-1.597,0.281-2.046,0.844
		c-0.449,0.562-0.674,1.228-0.674,1.995c0,0.781,0.225,1.448,0.674,2.003c0.449,0.554,1.131,0.832,2.046,0.832
		s1.597-0.277,2.046-0.832C225.759,123.794,225.983,123.127,225.983,122.346L225.983,122.346L225.983,122.346z M229.927,119.551
		c-0.438,0-0.799,0.107-1.084,0.322c-0.159,0.121-0.328,0.317-0.506,0.591v-0.776h-1.348V125h1.392v-2.881
		c0-0.329,0.045-0.599,0.136-0.811c0.174-0.4,0.496-0.601,0.964-0.601c0.381,0,0.64,0.137,0.776,0.41
		c0.074,0.15,0.111,0.365,0.111,0.645V125h1.426v-3.584c0-0.667-0.174-1.145-0.522-1.433
		C230.923,119.695,230.475,119.551,229.927,119.551L229.927,119.551L229.927,119.551z M233.283,120.718v3.276
		c0,0.332,0.078,0.578,0.234,0.737c0.241,0.251,0.69,0.365,1.348,0.342l0.659-0.024v-1.04c-0.045,0.003-0.092,0.006-0.139,0.007
		s-0.092,0.002-0.134,0.002c-0.283,0-0.453-0.027-0.508-0.081s-0.083-0.189-0.083-0.408v-2.812h0.864v-0.991h-0.864v-1.484h-1.377
		v1.484h-0.742v0.991H233.283L233.283,120.718z M238.635,120.684c0.329,0,0.604,0.096,0.826,0.287
		c0.222,0.191,0.345,0.472,0.371,0.841h-2.397c0.05-0.347,0.174-0.621,0.371-0.824S238.278,120.684,238.635,120.684L238.635,120.684
		L238.635,120.684z M238.634,119.536c-0.78,0-1.415,0.246-1.903,0.738c-0.489,0.492-0.733,1.199-0.733,2.121
		c0,0.984,0.271,1.694,0.812,2.131s1.167,0.655,1.875,0.655c0.858,0,1.525-0.259,2.002-0.776c0.307-0.325,0.479-0.646,0.516-0.962
		h-1.421c-0.083,0.156-0.178,0.278-0.286,0.366c-0.198,0.163-0.456,0.244-0.773,0.244c-0.299,0-0.555-0.066-0.767-0.2
		c-0.35-0.215-0.535-0.589-0.557-1.123h3.876c0.007-0.459-0.008-0.812-0.046-1.056c-0.065-0.417-0.206-0.784-0.424-1.101
		c-0.242-0.358-0.548-0.621-0.919-0.787C239.515,119.619,239.098,119.536,238.634,119.536L238.634,119.536L238.634,119.536z
		 M243.139,125l0.925-1.6l0.916,1.6h1.733l-1.816-2.72l1.748-2.593h-1.655l-0.869,1.542l-0.889-1.542h-1.704l1.738,2.617L241.45,125
		H243.139L243.139,125z M247.736,120.718v3.276c0,0.332,0.078,0.578,0.234,0.737c0.241,0.251,0.69,0.365,1.348,0.342l0.659-0.024
		v-1.04c-0.045,0.003-0.092,0.006-0.139,0.007s-0.092,0.002-0.134,0.002c-0.283,0-0.453-0.027-0.508-0.081s-0.083-0.189-0.083-0.408
		v-2.812h0.864v-0.991h-0.864v-1.484h-1.377v1.484h-0.742v0.991H247.736L247.736,120.718z M253.088,120.684
		c0.329,0,0.604,0.096,0.826,0.287c0.222,0.191,0.345,0.472,0.371,0.841h-2.397c0.05-0.347,0.174-0.621,0.371-0.824
		S252.731,120.684,253.088,120.684L253.088,120.684L253.088,120.684z M253.087,119.536c-0.78,0-1.415,0.246-1.903,0.738
		c-0.489,0.492-0.733,1.199-0.733,2.121c0,0.984,0.271,1.694,0.812,2.131s1.167,0.655,1.875,0.655c0.858,0,1.525-0.259,2.002-0.776
		c0.307-0.325,0.479-0.646,0.516-0.962h-1.421c-0.083,0.156-0.178,0.278-0.286,0.366c-0.198,0.163-0.456,0.244-0.773,0.244
		c-0.299,0-0.555-0.066-0.767-0.2c-0.35-0.215-0.535-0.589-0.557-1.123h3.876c0.007-0.459-0.008-0.812-0.046-1.056
		c-0.065-0.417-0.206-0.784-0.424-1.101c-0.242-0.358-0.548-0.621-0.919-0.787C253.968,119.619,253.551,119.536,253.087,119.536
		L253.087,119.536L253.087,119.536z"/>
	<path fill="#FFFFFF" d="M181,303.454c0-6.45-0.755-7.249-6.268-13.633l-0.058-0.065c-5.542-6.451-5.6-6.451-11.288-6.451
		c-7.573,0-41.814,0-41.814,0V351.4H181V303.454L181,303.454z M181,303.454"/>
	<path fill="none" stroke="#000000" stroke-linecap="round" stroke-linejoin="round" stroke-miterlimit="10" d="M181,303.454
		c0-6.45-0.755-7.249-6.268-13.633l-0.058-0.065c-5.542-6.451-5.6-6.451-11.288-6.451c-7.573,0-41.814,0-41.814,0V351.4H181V303.454
		L181,303.454z M181,303.122c0-6.118-0.058-6.118-11.926-6.118l0,0c0-13.633,0-13.699-5.339-13.699"/>
	<path fill="#FFFFFF" d="M177.286,298.502c0-6.451-0.755-7.249-6.268-13.633l-0.058-0.066c-5.542-6.45-5.6-6.45-11.288-6.45
		c-7.574,0-41.815,0-41.815,0v68.095h59.429V298.502L177.286,298.502z M177.286,298.502"/>
	<path fill="none" stroke="#000000" stroke-linecap="round" stroke-linejoin="round" stroke-miterlimit="10" d="M177.286,298.502
		c0-6.451-0.755-7.249-6.268-13.633l-0.058-0.066c-5.542-6.45-5.6-6.45-11.288-6.45c-7.574,0-41.815,0-41.815,0v68.095h59.429
		V298.502L177.286,298.502z M177.286,298.17c0-6.119-0.058-6.119-11.926-6.119l0,0c0-13.632,0-13.698-5.339-13.698"/>
	<path fill="#F95F9D" d="M173.571,293.55c0-6.451-0.754-7.249-6.268-13.633l-0.059-0.066c-5.542-6.45-5.6-6.45-11.288-6.45
		c-7.574,0-41.814,0-41.814,0v68.095h59.428V293.55L173.571,293.55z M173.571,293.55"/>
	<path fill="none" stroke="#000000" stroke-linecap="round" stroke-linejoin="round" stroke-miterlimit="10" d="M173.571,293.55
		c0-6.451-0.754-7.249-6.268-13.633l-0.059-0.066c-5.542-6.45-5.6-6.45-11.288-6.45c-7.574,0-41.814,0-41.814,0v68.095h59.428
		V293.55L173.571,293.55z M173.571,293.217c0-6.118-0.058-6.118-11.926-6.118l0,0c0-13.632,0-13.698-5.34-13.698"/>
	<path d="M136.66,297.993l1.368,2.454h1.826l-2.339-3.726l2.202-3.472h-1.738l-1.319,2.344l-1.283-2.344h-1.797l2.202,3.53
		l-2.314,3.667h1.748L136.66,297.993L136.66,297.993z M144.209,298.909l-1.311-5.659h-2.188v7.197h1.401v-4.868
		c0-0.14-0.002-0.336-0.005-0.588c-0.003-0.252-0.005-0.447-0.005-0.584l1.354,6.04h1.461l1.364-6.04
		c0,0.137-0.002,0.332-0.005,0.584c-0.003,0.252-0.005,0.448-0.005,0.588v4.868h1.401v-7.197h-2.164L144.209,298.909
		L144.209,298.909z M149.065,300.447h5.098v-1.294h-3.594v-5.903h-1.504V300.447L149.065,300.447z"/>
	<path d="M122.707,310.7v-4.957h1.517c0.69,0,1.191,0.222,1.502,0.664c0.311,0.442,0.466,1.063,0.466,1.863
		c0,0.208-0.021,0.434-0.064,0.677c-0.075,0.407-0.196,0.741-0.365,1.002c-0.212,0.325-0.484,0.545-0.816,0.659
		c-0.187,0.062-0.424,0.092-0.713,0.092H122.707L122.707,310.7z M121.823,311.447h2.571c1.093,0,1.863-0.489,2.312-1.468
		c0.254-0.554,0.382-1.173,0.382-1.858c0-0.888-0.216-1.616-0.646-2.185c-0.483-0.63-1.162-0.944-2.038-0.944h-2.58V311.447
		L121.823,311.447z M130.03,310.934c-0.472,0-0.817-0.167-1.034-0.501c-0.217-0.333-0.326-0.75-0.326-1.251
		c0-0.521,0.108-0.965,0.326-1.334c0.217-0.368,0.565-0.553,1.043-0.553c0.539,0,0.918,0.217,1.138,0.649
		c0.139,0.275,0.209,0.632,0.209,1.071c0,0.485-0.097,0.927-0.289,1.323C130.904,310.735,130.548,310.934,130.03,310.934
		L130.03,310.934L130.03,310.934z M130.061,306.604c-0.672,0-1.208,0.234-1.606,0.703c-0.398,0.468-0.598,1.098-0.598,1.888
		c0,0.737,0.189,1.325,0.567,1.763c0.378,0.438,0.889,0.656,1.532,0.656c0.771,0,1.34-0.247,1.706-0.741
		c0.367-0.495,0.55-1.121,0.55-1.88c0-0.784-0.208-1.379-0.624-1.782C131.172,306.807,130.663,306.604,130.061,306.604
		L130.061,306.604L130.061,306.604z M134.998,306.604c-0.622,0-1.133,0.23-1.534,0.69c-0.402,0.46-0.602,1.103-0.602,1.929
		c0,0.674,0.183,1.236,0.549,1.686c0.366,0.45,0.857,0.675,1.472,0.675c0.547,0,0.998-0.145,1.349-0.433
		c0.352-0.289,0.571-0.745,0.659-1.369h-0.769c-0.073,0.347-0.206,0.621-0.398,0.82c-0.192,0.2-0.452,0.3-0.78,0.3
		c-0.428,0-0.741-0.16-0.94-0.482c-0.2-0.322-0.299-0.719-0.299-1.189c0-0.468,0.07-0.861,0.211-1.181
		c0.217-0.491,0.577-0.737,1.081-0.737c0.369,0,0.637,0.096,0.804,0.288c0.167,0.191,0.274,0.433,0.321,0.723h0.769
		c-0.068-0.63-0.268-1.074-0.6-1.332S135.528,306.604,134.998,306.604L134.998,306.604L134.998,306.604z M137.666,306.741v3.199
		c0,0.401,0.064,0.722,0.194,0.962c0.238,0.448,0.687,0.673,1.345,0.673c0.423,0,0.782-0.123,1.078-0.369
		c0.149-0.123,0.274-0.274,0.375-0.453l-0.009,0.694h0.747v-4.706h-0.791v2.312c0,0.46-0.053,0.821-0.159,1.085
		c-0.194,0.492-0.559,0.738-1.096,0.738c-0.374,0-0.629-0.141-0.766-0.422c-0.074-0.152-0.111-0.349-0.111-0.589v-3.124H137.666
		L137.666,306.741z M142.688,311.447h0.791v-2.496c0-0.606,0.122-1.025,0.367-1.257s0.517-0.347,0.815-0.347
		c0.328,0,0.552,0.109,0.672,0.329c0.076,0.146,0.114,0.38,0.114,0.699v3.071h0.804v-2.737c0-0.486,0.112-0.834,0.336-1.042
		s0.492-0.312,0.802-0.312c0.226,0,0.417,0.059,0.573,0.176s0.235,0.332,0.235,0.646v3.27h0.822v-3.133
		c0-0.416-0.062-0.747-0.185-0.993c-0.229-0.457-0.659-0.686-1.292-0.686c-0.296,0-0.562,0.061-0.8,0.183
		c-0.237,0.121-0.444,0.308-0.62,0.56c-0.105-0.205-0.223-0.36-0.352-0.466c-0.229-0.185-0.53-0.276-0.905-0.276
		c-0.332,0-0.627,0.089-0.888,0.268c-0.152,0.105-0.323,0.274-0.51,0.506v-0.668h-0.782V311.447L142.688,311.447z M152.127,306.636
		c-0.658,0-1.191,0.235-1.599,0.707s-0.611,1.086-0.611,1.842c0,0.768,0.202,1.364,0.607,1.791c0.405,0.426,0.898,0.639,1.48,0.639
		c0.238,0,0.452-0.023,0.641-0.07c0.352-0.082,0.647-0.24,0.885-0.475c0.143-0.135,0.271-0.308,0.387-0.521
		c0.116-0.212,0.184-0.405,0.205-0.578h-0.778c-0.057,0.209-0.154,0.394-0.291,0.552c-0.244,0.274-0.571,0.411-0.981,0.411
		c-0.438,0-0.763-0.145-0.972-0.435c-0.209-0.289-0.321-0.673-0.335-1.152h3.423c0-0.475-0.023-0.82-0.07-1.037
		c-0.052-0.316-0.157-0.593-0.314-0.83c-0.163-0.249-0.4-0.452-0.712-0.608C152.781,306.714,152.459,306.636,152.127,306.636
		L152.127,306.636L152.127,306.636z M150.783,308.719c0.014-0.404,0.144-0.737,0.388-1c0.244-0.262,0.546-0.394,0.906-0.394
		c0.502,0,0.861,0.19,1.076,0.571c0.116,0.205,0.19,0.479,0.223,0.822H150.783L150.783,308.719z M155.191,311.447h0.791v-2.465
		c0-0.308,0.02-0.544,0.059-0.71c0.04-0.165,0.125-0.326,0.257-0.481c0.164-0.193,0.354-0.322,0.571-0.387
		c0.12-0.038,0.274-0.057,0.461-0.057c0.369,0,0.624,0.146,0.765,0.439c0.085,0.176,0.127,0.407,0.127,0.694v2.966h0.804v-3.019
		c0-0.475-0.064-0.84-0.193-1.095c-0.235-0.466-0.686-0.698-1.354-0.698c-0.305,0-0.582,0.06-0.831,0.18
		c-0.25,0.12-0.485,0.318-0.708,0.594v-0.668h-0.751V311.447L155.191,311.447z M160.354,306.741h-0.637v0.646h0.637v3.116
		c0,0.302,0.066,0.547,0.198,0.736c0.132,0.188,0.382,0.283,0.751,0.283c0.114,0,0.22-0.006,0.318-0.018s0.192-0.031,0.284-0.058
		v-0.628c-0.059,0.008-0.11,0.013-0.154,0.015s-0.085,0.003-0.123,0.003c-0.144,0-0.246-0.017-0.308-0.049
		c-0.112-0.056-0.167-0.165-0.167-0.329v-3.072h0.751v-0.646h-0.751v-1.314h-0.8V306.741L160.354,306.741z M162.407,309.971
		c0.021,0.469,0.179,0.862,0.474,1.181c0.295,0.317,0.797,0.477,1.506,0.477c0.659,0,1.149-0.152,1.471-0.457
		s0.483-0.667,0.483-1.086c0-0.434-0.154-0.751-0.461-0.953c-0.197-0.129-0.585-0.263-1.165-0.4l-0.533-0.127
		c-0.233-0.056-0.409-0.12-0.528-0.193c-0.207-0.122-0.31-0.286-0.31-0.49c0-0.187,0.079-0.337,0.236-0.451
		c0.158-0.113,0.389-0.171,0.695-0.171c0.458,0,0.781,0.104,0.967,0.311c0.114,0.146,0.179,0.308,0.194,0.485h0.747
		c0.006-0.305-0.091-0.589-0.29-0.853c-0.317-0.416-0.835-0.624-1.554-0.624c-0.549,0-0.986,0.138-1.312,0.413
		s-0.487,0.636-0.487,1.081c0,0.378,0.172,0.674,0.518,0.888c0.193,0.123,0.494,0.234,0.902,0.334l0.639,0.158
		c0.342,0.085,0.572,0.159,0.688,0.224c0.182,0.105,0.272,0.26,0.272,0.462c0,0.267-0.114,0.464-0.341,0.591
		c-0.227,0.128-0.49,0.191-0.789,0.191c-0.502,0-0.855-0.128-1.059-0.383c-0.111-0.141-0.178-0.343-0.202-0.606H162.407
		L162.407,309.971z"/>
	<path d="M127.364,317.636c-0.658,0-1.191,0.235-1.599,0.707s-0.611,1.086-0.611,1.842c0,0.768,0.202,1.364,0.607,1.791
		c0.405,0.426,0.898,0.639,1.48,0.639c0.238,0,0.452-0.023,0.641-0.07c0.352-0.082,0.647-0.24,0.885-0.475
		c0.143-0.135,0.271-0.308,0.387-0.521c0.116-0.212,0.184-0.405,0.205-0.578h-0.778c-0.057,0.209-0.154,0.394-0.291,0.552
		c-0.244,0.274-0.571,0.411-0.981,0.411c-0.438,0-0.763-0.145-0.972-0.435c-0.209-0.289-0.321-0.673-0.335-1.152h3.423
		c0-0.475-0.023-0.82-0.07-1.037c-0.052-0.316-0.157-0.593-0.314-0.83c-0.163-0.249-0.4-0.452-0.712-0.608
		C128.018,317.714,127.696,317.636,127.364,317.636L127.364,317.636L127.364,317.636z M126.02,319.719
		c0.014-0.404,0.144-0.737,0.388-1c0.244-0.262,0.546-0.394,0.906-0.394c0.502,0,0.861,0.19,1.076,0.571
		c0.116,0.205,0.19,0.479,0.223,0.822H126.02L126.02,319.719z M130.428,322.447h0.791v-2.465c0-0.308,0.02-0.544,0.059-0.71
		c0.04-0.165,0.125-0.326,0.257-0.481c0.164-0.193,0.354-0.322,0.571-0.387c0.12-0.038,0.273-0.057,0.461-0.057
		c0.369,0,0.624,0.146,0.765,0.439c0.084,0.176,0.127,0.407,0.127,0.694v2.966h0.804v-3.019c0-0.475-0.065-0.84-0.193-1.095
		c-0.235-0.466-0.686-0.698-1.354-0.698c-0.305,0-0.582,0.06-0.831,0.18c-0.249,0.12-0.485,0.318-0.708,0.594v-0.668h-0.751V322.447
		L130.428,322.447z M139.875,317.636c-0.658,0-1.191,0.235-1.599,0.707s-0.611,1.086-0.611,1.842c0,0.768,0.202,1.364,0.607,1.791
		c0.405,0.426,0.898,0.639,1.48,0.639c0.238,0,0.452-0.023,0.641-0.07c0.352-0.082,0.647-0.24,0.885-0.475
		c0.143-0.135,0.271-0.308,0.387-0.521c0.116-0.212,0.184-0.405,0.205-0.578h-0.778c-0.057,0.209-0.154,0.394-0.291,0.552
		c-0.244,0.274-0.571,0.411-0.981,0.411c-0.438,0-0.763-0.145-0.972-0.435c-0.209-0.289-0.321-0.673-0.335-1.152h3.423
		c0-0.475-0.023-0.82-0.07-1.037c-0.052-0.316-0.157-0.593-0.314-0.83c-0.163-0.249-0.4-0.452-0.712-0.608
		C140.529,317.714,140.207,317.636,139.875,317.636L139.875,317.636L139.875,317.636z M138.531,319.719
		c0.014-0.404,0.144-0.737,0.388-1c0.244-0.262,0.546-0.394,0.906-0.394c0.502,0,0.861,0.19,1.076,0.571
		c0.116,0.205,0.19,0.479,0.223,0.822H138.531L138.531,319.719z M142.939,322.447h0.791v-2.465c0-0.308,0.02-0.544,0.059-0.71
		c0.04-0.165,0.125-0.326,0.257-0.481c0.164-0.193,0.354-0.322,0.571-0.387c0.12-0.038,0.274-0.057,0.461-0.057
		c0.369,0,0.624,0.146,0.765,0.439c0.085,0.176,0.127,0.407,0.127,0.694v2.966h0.804v-3.019c0-0.475-0.064-0.84-0.193-1.095
		c-0.235-0.466-0.686-0.698-1.354-0.698c-0.305,0-0.582,0.06-0.831,0.18c-0.25,0.12-0.485,0.318-0.708,0.594v-0.668h-0.751V322.447
		L142.939,322.447z M148.103,317.741h-0.637v0.646h0.637v3.116c0,0.302,0.066,0.547,0.198,0.736
		c0.132,0.188,0.382,0.283,0.751,0.283c0.114,0,0.22-0.006,0.318-0.018s0.192-0.031,0.284-0.058v-0.628
		c-0.059,0.008-0.11,0.013-0.154,0.015s-0.085,0.003-0.123,0.003c-0.144,0-0.246-0.017-0.308-0.049
		c-0.112-0.056-0.167-0.165-0.167-0.329v-3.072h0.751v-0.646h-0.751v-1.314h-0.8V317.741L148.103,317.741z M150.467,322.447h0.791
		v-2.707c0-0.334,0.106-0.629,0.321-0.885c0.213-0.257,0.52-0.385,0.918-0.385c0.046,0,0.09,0.001,0.129,0.004
		s0.083,0.009,0.13,0.018v-0.835c-0.085-0.009-0.145-0.015-0.18-0.018s-0.061-0.004-0.075-0.004c-0.314,0-0.591,0.113-0.831,0.341
		c-0.24,0.227-0.391,0.419-0.453,0.577v-0.812h-0.751V322.447L150.467,322.447z M155.384,317.636c-0.658,0-1.191,0.235-1.599,0.707
		s-0.611,1.086-0.611,1.842c0,0.768,0.202,1.364,0.607,1.791c0.405,0.426,0.898,0.639,1.48,0.639c0.238,0,0.452-0.023,0.641-0.07
		c0.352-0.082,0.647-0.24,0.885-0.475c0.143-0.135,0.271-0.308,0.387-0.521c0.116-0.212,0.184-0.405,0.205-0.578h-0.778
		c-0.057,0.209-0.154,0.394-0.291,0.552c-0.244,0.274-0.571,0.411-0.981,0.411c-0.438,0-0.763-0.145-0.972-0.435
		c-0.209-0.289-0.321-0.673-0.335-1.152h3.423c0-0.475-0.023-0.82-0.07-1.037c-0.052-0.316-0.157-0.593-0.314-0.83
		c-0.163-0.249-0.4-0.452-0.712-0.608C156.037,317.714,155.715,317.636,155.384,317.636L155.384,317.636L155.384,317.636z
		 M154.04,319.719c0.014-0.404,0.144-0.737,0.388-1c0.244-0.262,0.546-0.394,0.906-0.394c0.502,0,0.861,0.19,1.076,0.571
		c0.116,0.205,0.19,0.479,0.223,0.822H154.04L154.04,319.719z M155.34,315.847l-0.804,1.271h0.606l1.173-1.271H155.34
		L155.34,315.847z M160.389,317.636c-0.658,0-1.191,0.235-1.599,0.707s-0.611,1.086-0.611,1.842c0,0.768,0.202,1.364,0.607,1.791
		c0.405,0.426,0.898,0.639,1.48,0.639c0.238,0,0.452-0.023,0.641-0.07c0.352-0.082,0.647-0.24,0.885-0.475
		c0.143-0.135,0.271-0.308,0.387-0.521c0.116-0.212,0.184-0.405,0.205-0.578h-0.778c-0.057,0.209-0.154,0.394-0.291,0.552
		c-0.244,0.274-0.571,0.411-0.981,0.411c-0.438,0-0.763-0.145-0.972-0.435c-0.209-0.289-0.321-0.673-0.335-1.152h3.423
		c0-0.475-0.023-0.82-0.07-1.037c-0.052-0.316-0.157-0.593-0.314-0.83c-0.163-0.249-0.4-0.452-0.712-0.608
		C161.042,317.714,160.721,317.636,160.389,317.636L160.389,317.636L160.389,317.636z M159.045,319.719
		c0.014-0.404,0.144-0.737,0.388-1c0.244-0.262,0.546-0.394,0.906-0.394c0.502,0,0.861,0.19,1.076,0.571
		c0.116,0.205,0.19,0.479,0.223,0.822H159.045L159.045,319.719z"/>
	<path fill="#F95F9D" d="M525.8,293.64c0-6.479-0.724-7.281-6.012-13.693l-0.056-0.066c-5.315-6.479-5.371-6.479-10.826-6.479
		c-7.265,0-40.106,0-40.106,0V341.8h57V293.64L525.8,293.64z M525.8,293.64"/>
	<path fill="none" stroke="#000000" stroke-linecap="round" stroke-linejoin="round" stroke-miterlimit="10" d="M525.8,293.64
		c0-6.479-0.724-7.281-6.012-13.693l-0.056-0.066c-5.315-6.479-5.371-6.479-10.826-6.479c-7.265,0-40.106,0-40.106,0V341.8h57
		V293.64L525.8,293.64z M525.8,293.306c0-6.146-0.056-6.146-11.438-6.146l0,0c0-13.693,0-13.76-5.121-13.76"/>
	<path d="M490.103,303.646l1.367,2.454h1.826l-2.339-3.726l2.202-3.472h-1.738l-1.318,2.345l-1.284-2.345h-1.797l2.202,3.53
		l-2.314,3.667h1.748L490.103,303.646L490.103,303.646z M497.651,304.562l-1.31-5.659h-2.188v7.197h1.401v-4.868
		c0-0.14-0.002-0.336-0.005-0.588c-0.004-0.252-0.005-0.447-0.005-0.584l1.354,6.04h1.462l1.364-6.04
		c0,0.137-0.002,0.332-0.005,0.584c-0.004,0.252-0.005,0.448-0.005,0.588v4.868h1.401v-7.197h-2.164L497.651,304.562
		L497.651,304.562z M502.508,306.1h5.098v-1.294h-3.594v-5.903h-1.504V306.1L502.508,306.1z"/>
	<path d="M482.457,313.602v-2.206h2.077c0.291,0,0.523,0.044,0.697,0.132c0.324,0.167,0.487,0.48,0.487,0.94
		c0,0.428-0.116,0.724-0.349,0.888s-0.548,0.246-0.946,0.246H482.457L482.457,313.602z M481.583,317.1h0.874v-2.769h1.935
		c0.348,0,0.603,0.04,0.765,0.119c0.284,0.144,0.437,0.426,0.457,0.848l0.053,1.077c0.011,0.252,0.025,0.422,0.043,0.51
		s0.041,0.159,0.07,0.215h1.072v-0.145c-0.135-0.059-0.229-0.19-0.281-0.396c-0.032-0.12-0.053-0.304-0.061-0.55l-0.031-0.865
		c-0.015-0.375-0.086-0.646-0.213-0.813c-0.128-0.167-0.317-0.302-0.569-0.404c0.287-0.149,0.511-0.347,0.67-0.593
		c0.16-0.246,0.239-0.562,0.239-0.949c0-0.741-0.297-1.25-0.893-1.525c-0.313-0.144-0.712-0.215-1.195-0.215h-2.935V317.1
		L481.583,317.1z M489.813,312.288c-0.658,0-1.19,0.235-1.599,0.707c-0.407,0.472-0.611,1.086-0.611,1.842
		c0,0.768,0.202,1.364,0.607,1.791c0.404,0.426,0.897,0.639,1.48,0.639c0.238,0,0.451-0.023,0.641-0.07
		c0.352-0.082,0.646-0.24,0.886-0.475c0.142-0.135,0.271-0.308,0.387-0.521c0.116-0.212,0.184-0.405,0.204-0.578h-0.777
		c-0.057,0.209-0.154,0.394-0.29,0.553c-0.244,0.273-0.571,0.41-0.981,0.41c-0.439,0-0.763-0.145-0.973-0.435
		c-0.209-0.289-0.321-0.673-0.336-1.152h3.424c0-0.475-0.023-0.82-0.07-1.037c-0.052-0.316-0.157-0.593-0.314-0.83
		c-0.163-0.249-0.4-0.452-0.712-0.608C490.467,312.366,490.146,312.288,489.813,312.288L489.813,312.288L489.813,312.288z
		 M488.469,314.371c0.015-0.404,0.145-0.737,0.389-1c0.244-0.262,0.546-0.394,0.906-0.394c0.502,0,0.861,0.19,1.076,0.571
		c0.116,0.205,0.19,0.479,0.223,0.822H488.469L488.469,314.371z M489.77,310.499l-0.804,1.271h0.606l1.174-1.271H489.77
		L489.77,310.499z M492.587,315.623c0.021,0.469,0.179,0.862,0.474,1.181c0.295,0.317,0.797,0.477,1.506,0.477
		c0.659,0,1.149-0.152,1.471-0.457c0.322-0.305,0.482-0.667,0.482-1.086c0-0.434-0.153-0.751-0.461-0.953
		c-0.197-0.129-0.585-0.263-1.164-0.4l-0.533-0.127c-0.232-0.056-0.408-0.12-0.528-0.193c-0.207-0.122-0.31-0.286-0.31-0.49
		c0-0.187,0.078-0.337,0.235-0.451c0.158-0.113,0.39-0.171,0.695-0.171c0.459,0,0.781,0.104,0.967,0.311
		c0.114,0.146,0.179,0.308,0.194,0.485h0.746c0.006-0.305-0.09-0.589-0.289-0.853c-0.317-0.416-0.836-0.624-1.555-0.624
		c-0.549,0-0.986,0.138-1.312,0.413s-0.487,0.636-0.487,1.081c0,0.378,0.173,0.674,0.518,0.888c0.194,0.123,0.495,0.234,0.902,0.334
		l0.639,0.158c0.343,0.085,0.572,0.159,0.688,0.224c0.182,0.105,0.273,0.26,0.273,0.462c0,0.267-0.114,0.464-0.342,0.591
		c-0.227,0.128-0.49,0.191-0.789,0.191c-0.502,0-0.855-0.128-1.059-0.383c-0.11-0.141-0.178-0.343-0.201-0.606H492.587
		L492.587,315.623z M497.359,312.394v3.199c0,0.401,0.064,0.722,0.194,0.962c0.238,0.448,0.687,0.673,1.345,0.673
		c0.423,0,0.782-0.123,1.078-0.369c0.149-0.123,0.274-0.274,0.375-0.453l-0.008,0.694h0.746v-4.706h-0.791v2.312
		c0,0.46-0.053,0.821-0.158,1.085c-0.193,0.492-0.559,0.738-1.096,0.738c-0.373,0-0.629-0.141-0.766-0.422
		c-0.074-0.152-0.111-0.349-0.111-0.589v-3.124H497.359L497.359,312.394z M502.404,317.1h0.791v-6.455h-0.791V317.1L502.404,317.1z
		 M504.54,312.394h-0.638v0.646h0.638v3.116c0,0.302,0.065,0.547,0.198,0.736c0.131,0.188,0.382,0.283,0.751,0.283
		c0.114,0,0.221-0.006,0.318-0.018c0.099-0.012,0.192-0.031,0.284-0.058v-0.628c-0.06,0.008-0.11,0.013-0.154,0.015
		s-0.085,0.003-0.123,0.003c-0.144,0-0.246-0.017-0.308-0.049c-0.111-0.056-0.167-0.165-0.167-0.329v-3.072h0.752v-0.646h-0.752
		v-1.314h-0.8V312.394L504.54,312.394z M507.488,315.85c0-0.302,0.123-0.521,0.367-0.658c0.145-0.082,0.36-0.142,0.646-0.18
		l0.479-0.062c0.146-0.018,0.295-0.047,0.447-0.088c0.151-0.041,0.276-0.093,0.373-0.154v0.636c0,0.486-0.221,0.836-0.66,1.049
		c-0.261,0.129-0.53,0.193-0.809,0.193c-0.229,0-0.426-0.065-0.593-0.197S507.488,316.077,507.488,315.85L507.488,315.85
		L507.488,315.85z M508.144,314.41c-0.442,0.055-0.8,0.203-1.072,0.443c-0.272,0.239-0.409,0.577-0.409,1.014
		c0,0.397,0.139,0.729,0.416,0.994c0.276,0.265,0.633,0.396,1.07,0.396c0.362,0,0.695-0.077,0.997-0.232s0.533-0.338,0.694-0.549
		c0.026,0.188,0.071,0.332,0.137,0.435c0.123,0.193,0.32,0.29,0.593,0.29c0.111,0,0.199-0.005,0.264-0.014s0.158-0.03,0.281-0.065
		v-0.585c-0.05,0.009-0.097,0.016-0.141,0.021c-0.044,0.004-0.083,0.006-0.118,0.006c-0.109,0-0.18-0.024-0.214-0.074
		c-0.033-0.05-0.05-0.115-0.05-0.197v-2.712c0-0.445-0.172-0.773-0.514-0.984c-0.346-0.211-0.795-0.316-1.348-0.316
		c-0.478,0-0.896,0.113-1.258,0.342c-0.361,0.228-0.55,0.632-0.564,1.214h0.738c0.029-0.244,0.093-0.429,0.189-0.552
		c0.172-0.224,0.465-0.336,0.877-0.336c0.356,0,0.631,0.061,0.822,0.183s0.287,0.318,0.287,0.589c0,0.133-0.018,0.234-0.053,0.305
		c-0.062,0.129-0.183,0.205-0.364,0.229L508.144,314.41L508.144,314.41z M512.046,312.394h-0.638v0.646h0.638v3.116
		c0,0.302,0.065,0.547,0.198,0.736c0.131,0.188,0.382,0.283,0.751,0.283c0.114,0,0.221-0.006,0.318-0.018
		c0.099-0.012,0.192-0.031,0.284-0.058v-0.628c-0.06,0.008-0.11,0.013-0.154,0.015s-0.085,0.003-0.123,0.003
		c-0.144,0-0.246-0.017-0.308-0.049c-0.111-0.056-0.167-0.165-0.167-0.329v-3.072h0.752v-0.646h-0.752v-1.314h-0.8V312.394
		L512.046,312.394z"/>
	<line fill="none" stroke="#000000" stroke-width="2" stroke-miterlimit="10" x1="188" y1="309.5" x2="262.1" y2="309.5"/>
	<path d="M267.1,309.5l-8-3l3,3l0,0l-3,3L267.1,309.5z M267.1,309.5"/>
	<path fill="none" stroke="#000000" stroke-width="2" stroke-miterlimit="10" d="M267.1,309.5l-8-3l3,3l0,0l-3,3L267.1,309.5z
		 M267.1,309.5 M379,309.5h74.1"/>
	<path d="M458.1,309.5l-8-3l3,3l0,0l-3,3L458.1,309.5z M458.1,309.5"/>
	<path fill="none" stroke="#000000" stroke-width="2" stroke-miterlimit="10" d="M458.1,309.5l-8-3l3,3l0,0l-3,3L458.1,309.5z
		 M458.1,309.5"/>
	<path fill="#FFFFFF" d="M277,274h91.2v68.4H277V274z M277,274"/>
	<path fill="none" stroke="#000000" stroke-linecap="round" stroke-linejoin="round" stroke-miterlimit="10" d="M277,274h91.2v68.4
		H277V274z M277,274"/>
	<path d="M300.093,301.293c0,0.374-0.095,0.647-0.286,0.82c-0.19,0.172-0.458,0.259-0.801,0.259h-1.355v-2.119h1.355
		c0.343,0,0.61,0.079,0.801,0.239C299.998,300.651,300.093,300.918,300.093,301.293L300.093,301.293L300.093,301.293z
		 M301.587,301.283c0-0.778-0.212-1.353-0.636-1.724c-0.423-0.371-0.991-0.557-1.704-0.557h-3.09v7.197h1.494v-2.588h1.499
		c0.782,0,1.384-0.176,1.805-0.527C301.376,302.733,301.587,302.133,301.587,301.283L301.587,301.283L301.587,301.283z
		 M305.571,300.751c-0.417,0-0.755,0.108-1.016,0.327c-0.16,0.13-0.347,0.373-0.562,0.728v-0.928h-1.328v5.322h1.401v-2.544
		c0-0.427,0.054-0.742,0.161-0.947c0.192-0.365,0.568-0.547,1.128-0.547c0.042,0,0.098,0.002,0.166,0.005s0.146,0.01,0.234,0.02
		v-1.426c-0.062-0.003-0.102-0.006-0.12-0.008C305.619,300.752,305.597,300.751,305.571,300.751L305.571,300.751L305.571,300.751z
		 M308.96,305.214c-0.407,0-0.72-0.145-0.94-0.435c-0.22-0.289-0.33-0.7-0.33-1.233s0.11-0.943,0.33-1.23
		c0.22-0.288,0.533-0.432,0.94-0.432c0.407,0,0.719,0.144,0.938,0.432c0.218,0.287,0.327,0.697,0.327,1.23s-0.109,0.944-0.327,1.233
		C309.679,305.069,309.367,305.214,308.96,305.214L308.96,305.214L308.96,305.214z M311.685,303.546
		c0-0.768-0.225-1.433-0.674-1.995s-1.131-0.844-2.046-0.844c-0.915,0-1.597,0.281-2.046,0.844s-0.674,1.228-0.674,1.995
		c0,0.781,0.225,1.448,0.674,2.003s1.131,0.832,2.046,0.832c0.915,0,1.597-0.277,2.046-0.832S311.685,304.327,311.685,303.546
		L311.685,303.546L311.685,303.546z M317.29,302.787c-0.079-0.759-0.33-1.287-0.755-1.587s-0.972-0.449-1.64-0.449
		c-0.786,0-1.401,0.254-1.848,0.762s-0.669,1.218-0.669,2.131c0,0.81,0.202,1.468,0.606,1.976s1.035,0.762,1.892,0.762
		s1.503-0.305,1.94-0.913c0.273-0.378,0.427-0.778,0.459-1.201h-1.421c-0.029,0.28-0.113,0.508-0.25,0.684
		c-0.137,0.176-0.369,0.264-0.695,0.264c-0.46,0-0.773-0.222-0.94-0.664c-0.091-0.237-0.137-0.551-0.137-0.94
		c0-0.409,0.045-0.736,0.137-0.983c0.173-0.466,0.495-0.698,0.964-0.698c0.33,0,0.573,0.107,0.729,0.322
		c0.107,0.159,0.174,0.338,0.201,0.537H317.29L317.29,302.787z M320.459,301.884c0.328,0,0.604,0.096,0.825,0.287
		c0.222,0.19,0.346,0.472,0.371,0.841h-2.397c0.05-0.347,0.174-0.621,0.371-0.824C319.825,301.985,320.102,301.884,320.459,301.884
		L320.459,301.884L320.459,301.884z M320.459,300.736c-0.78,0-1.415,0.246-1.904,0.737c-0.489,0.492-0.733,1.199-0.733,2.121
		c0,0.984,0.271,1.694,0.812,2.131s1.167,0.655,1.875,0.655c0.858,0,1.525-0.259,2.003-0.776c0.306-0.325,0.479-0.646,0.516-0.962
		h-1.421c-0.083,0.156-0.179,0.278-0.286,0.366c-0.198,0.163-0.456,0.244-0.773,0.244c-0.299,0-0.554-0.067-0.767-0.2
		c-0.35-0.215-0.535-0.59-0.557-1.123h3.876c0.007-0.46-0.008-0.812-0.046-1.057c-0.064-0.417-0.206-0.784-0.424-1.101
		c-0.242-0.358-0.549-0.621-0.92-0.787S320.922,300.736,320.459,300.736L320.459,300.736L320.459,300.736z M323.472,304.501
		c0,0.547,0.199,0.997,0.6,1.35c0.399,0.354,1.019,0.53,1.856,0.53c0.822,0,1.43-0.167,1.822-0.501
		c0.394-0.333,0.59-0.764,0.59-1.291c0-0.4-0.137-0.734-0.41-1.001c-0.277-0.264-0.692-0.461-1.247-0.591
		c-0.831-0.183-1.315-0.312-1.452-0.386c-0.138-0.072-0.206-0.188-0.206-0.347c0-0.127,0.064-0.237,0.193-0.332
		s0.345-0.142,0.648-0.142c0.369,0,0.63,0.094,0.784,0.283c0.081,0.104,0.132,0.246,0.151,0.425h1.392
		c-0.062-0.651-0.303-1.109-0.722-1.375c-0.419-0.265-0.962-0.397-1.627-0.397c-0.702,0-1.245,0.177-1.632,0.529
		c-0.387,0.354-0.58,0.775-0.58,1.268c0,0.416,0.123,0.735,0.371,0.957c0.247,0.225,0.674,0.412,1.278,0.562
		c0.84,0.198,1.325,0.339,1.456,0.42c0.13,0.081,0.195,0.2,0.195,0.356c0,0.162-0.081,0.285-0.243,0.366s-0.38,0.122-0.655,0.122
		c-0.467,0-0.788-0.093-0.961-0.278c-0.099-0.104-0.162-0.28-0.191-0.527H323.472L323.472,304.501z M329.033,304.501
		c0,0.547,0.199,0.997,0.6,1.35c0.399,0.354,1.018,0.53,1.856,0.53c0.822,0,1.43-0.167,1.822-0.501
		c0.394-0.333,0.59-0.764,0.59-1.291c0-0.4-0.137-0.734-0.41-1.001c-0.276-0.264-0.692-0.461-1.247-0.591
		c-0.831-0.183-1.315-0.312-1.453-0.386c-0.137-0.072-0.205-0.188-0.205-0.347c0-0.127,0.064-0.237,0.193-0.332
		s0.345-0.142,0.648-0.142c0.369,0,0.63,0.094,0.783,0.283c0.082,0.104,0.133,0.246,0.152,0.425h1.392
		c-0.062-0.651-0.303-1.109-0.722-1.375c-0.42-0.265-0.962-0.397-1.627-0.397c-0.701,0-1.246,0.177-1.632,0.529
		c-0.387,0.354-0.58,0.775-0.58,1.268c0,0.416,0.124,0.735,0.371,0.957c0.247,0.225,0.673,0.412,1.278,0.562
		c0.84,0.198,1.325,0.339,1.456,0.42c0.13,0.081,0.195,0.2,0.195,0.356c0,0.162-0.081,0.285-0.243,0.366s-0.38,0.122-0.654,0.122
		c-0.469,0-0.789-0.093-0.962-0.278c-0.099-0.104-0.162-0.28-0.191-0.527H329.033L329.033,304.501z M337.144,301.884
		c0.328,0,0.604,0.096,0.825,0.287c0.222,0.19,0.346,0.472,0.371,0.841h-2.397c0.051-0.347,0.174-0.621,0.37-0.824
		C336.51,301.985,336.786,301.884,337.144,301.884L337.144,301.884L337.144,301.884z M337.144,300.736
		c-0.78,0-1.415,0.246-1.903,0.737c-0.489,0.492-0.733,1.199-0.733,2.121c0,0.984,0.271,1.694,0.812,2.131
		c0.542,0.437,1.167,0.655,1.875,0.655c0.858,0,1.525-0.259,2.003-0.776c0.306-0.325,0.478-0.646,0.516-0.962h-1.421
		c-0.083,0.156-0.179,0.278-0.286,0.366c-0.198,0.163-0.456,0.244-0.772,0.244c-0.3,0-0.556-0.067-0.768-0.2
		c-0.35-0.215-0.535-0.59-0.557-1.123h3.876c0.007-0.46-0.008-0.812-0.046-1.057c-0.064-0.417-0.206-0.784-0.424-1.101
		c-0.242-0.358-0.549-0.621-0.92-0.787S337.606,300.736,337.144,300.736L337.144,300.736L337.144,300.736z M340.449,300.878v3.208
		c0,0.608,0.076,1.069,0.229,1.382c0.272,0.566,0.802,0.85,1.588,0.85c0.272,0,0.51-0.036,0.713-0.107s0.413-0.205,0.631-0.4
		c0.071-0.062,0.133-0.134,0.185-0.215s0.085-0.13,0.098-0.146v0.752h1.353v-5.322h-1.411v2.896c0,0.342-0.046,0.617-0.136,0.825
		c-0.176,0.384-0.499,0.576-0.973,0.576c-0.369,0-0.616-0.136-0.743-0.405c-0.071-0.153-0.106-0.381-0.106-0.684v-3.208H340.449
		L340.449,300.878z M349.487,300.751c-0.417,0-0.755,0.108-1.016,0.327c-0.159,0.13-0.347,0.373-0.562,0.728v-0.928h-1.328v5.322
		h1.401v-2.544c0-0.427,0.054-0.742,0.161-0.947c0.191-0.365,0.568-0.547,1.128-0.547c0.042,0,0.098,0.002,0.166,0.005
		s0.146,0.01,0.234,0.02v-1.426c-0.062-0.003-0.102-0.006-0.12-0.008C349.535,300.752,349.514,300.751,349.487,300.751
		L349.487,300.751L349.487,300.751z"/>
	<path d="M313.794,315.251l1.911,2.949h1.202l-2.495-3.68l2.379-3.493h-1.153l-1.795,2.744l-1.81-2.744h-1.211l2.38,3.493
		l-2.539,3.68h1.168L313.794,315.251L313.794,315.251z M317.617,315.886c-0.01,0.774,0.231,1.388,0.724,1.841
		c0.492,0.455,1.173,0.684,2.043,0.684c0.746,0,1.4-0.171,1.964-0.513s0.846-0.91,0.846-1.704c0-0.639-0.221-1.125-0.662-1.46
		c-0.256-0.192-0.618-0.344-1.089-0.454l-0.975-0.229c-0.656-0.156-1.077-0.286-1.263-0.391c-0.284-0.163-0.426-0.42-0.426-0.771
		c0-0.319,0.12-0.599,0.36-0.84s0.635-0.361,1.185-0.361c0.68,0,1.162,0.187,1.446,0.562c0.153,0.205,0.253,0.5,0.3,0.884h0.913
		c0-0.798-0.256-1.378-0.768-1.741c-0.512-0.362-1.133-0.544-1.865-0.544c-0.795,0-1.409,0.206-1.843,0.62
		c-0.434,0.413-0.651,0.942-0.651,1.587c0,0.596,0.221,1.043,0.662,1.343c0.255,0.172,0.69,0.33,1.306,0.474l0.941,0.22
		c0.511,0.12,0.886,0.262,1.126,0.425c0.236,0.166,0.354,0.444,0.354,0.835c0,0.521-0.279,0.882-0.837,1.084
		c-0.289,0.104-0.608,0.156-0.96,0.156c-0.784,0-1.331-0.238-1.642-0.713c-0.163-0.254-0.255-0.584-0.277-0.991H317.617
		L317.617,315.886z M324.565,318.2h4.57v-0.854h-3.599v-6.318h-0.972V318.2L324.565,318.2z"/>
	<polygon points="328.789,311.027 328.789,311.882 331.206,311.882 331.206,318.2 332.188,318.2 332.188,311.882 334.604,311.882 
		334.604,311.027 328.789,311.027 	"/>
	<path fill="#F95F9D" d="M350.1,156.24c0-6.48-0.724-7.281-6.012-13.694l-0.056-0.066C338.717,136,338.661,136,333.206,136
		c-7.265,0-40.106,0-40.106,0v68.4h57V156.24L350.1,156.24z M350.1,156.24"/>
	<path fill="none" stroke="#000000" stroke-linecap="round" stroke-linejoin="round" stroke-miterlimit="10" d="M350.1,156.24
		c0-6.48-0.724-7.281-6.012-13.694l-0.056-0.066C338.717,136,338.661,136,333.206,136c-7.265,0-40.106,0-40.106,0v68.4h57V156.24
		L350.1,156.24z M350.1,155.906c0-6.146-0.056-6.146-11.438-6.146l0,0c0-13.693,0-13.76-5.121-13.76"/>
	<path d="M301.389,167.2h0.777v-2.426h1.792c0.574,0,1-0.166,1.279-0.498c0.279-0.332,0.418-0.722,0.418-1.17
		c0-0.521-0.156-0.925-0.468-1.213c-0.312-0.288-0.722-0.432-1.229-0.432h-2.568V167.2L301.389,167.2z M304.87,163.11
		c0,0.375-0.108,0.637-0.324,0.785c-0.216,0.148-0.497,0.223-0.844,0.223h-1.536v-1.988h1.536c0.297,0,0.531,0.04,0.702,0.121
		C304.714,162.402,304.87,162.688,304.87,163.11L304.87,163.11L304.87,163.11z M306.577,167.2h0.703v-2.406
		c0-0.297,0.095-0.56,0.285-0.787c0.19-0.228,0.462-0.342,0.816-0.342c0.042,0,0.08,0.001,0.115,0.004
		c0.035,0.002,0.073,0.008,0.115,0.016v-0.742c-0.076-0.008-0.129-0.013-0.16-0.016c-0.031-0.003-0.054-0.004-0.066-0.004
		c-0.279,0-0.525,0.101-0.738,0.303c-0.214,0.202-0.348,0.373-0.402,0.514v-0.723h-0.668V167.2L306.577,167.2z M310.868,166.743
		c-0.42,0-0.726-0.148-0.919-0.445c-0.193-0.297-0.29-0.667-0.29-1.112c0-0.463,0.096-0.858,0.29-1.186
		c0.193-0.328,0.502-0.491,0.927-0.491c0.479,0,0.816,0.192,1.012,0.577c0.124,0.245,0.186,0.562,0.186,0.952
		c0,0.432-0.086,0.824-0.257,1.176C311.645,166.567,311.329,166.743,310.868,166.743L310.868,166.743L310.868,166.743z
		 M310.895,162.896c-0.597,0-1.073,0.208-1.427,0.624c-0.354,0.417-0.531,0.976-0.531,1.678c0,0.656,0.168,1.178,0.504,1.567
		c0.336,0.389,0.79,0.583,1.362,0.583c0.685,0,1.19-0.22,1.517-0.66c0.326-0.44,0.489-0.997,0.489-1.67
		c0-0.697-0.185-1.226-0.555-1.584C311.882,163.075,311.43,162.896,310.895,162.896L310.895,162.896L310.895,162.896z
		 M315.14,162.942c-0.482,0-0.895,0.196-1.235,0.59c-0.341,0.393-0.512,0.94-0.512,1.641c0,0.742,0.169,1.274,0.508,1.596
		c0.338,0.321,0.733,0.482,1.185,0.482c0.324,0,0.585-0.052,0.782-0.156c0.197-0.104,0.366-0.263,0.506-0.477
		c0.008,0.575-0.038,0.975-0.136,1.199c-0.166,0.38-0.517,0.57-1.053,0.57c-0.339,0-0.588-0.078-0.746-0.234
		c-0.101-0.102-0.168-0.246-0.202-0.434h-0.715c0.036,0.43,0.208,0.745,0.514,0.947c0.306,0.202,0.684,0.303,1.133,0.303
		c0.807,0,1.356-0.284,1.646-0.852c0.156-0.308,0.234-0.727,0.234-1.258v-3.805h-0.648v0.527c-0.138-0.175-0.272-0.308-0.405-0.398
		C315.752,163.023,315.467,162.942,315.14,162.942L315.14,162.942L315.14,162.942z M316.401,165.091
		c0,0.344-0.057,0.645-0.171,0.902c-0.205,0.456-0.558,0.684-1.061,0.684c-0.321,0-0.577-0.123-0.768-0.369
		s-0.286-0.605-0.286-1.076c0-0.401,0.048-0.726,0.144-0.973c0.182-0.464,0.518-0.695,1.011-0.695c0.329,0,0.6,0.125,0.812,0.375
		S316.401,164.572,316.401,165.091L316.401,165.091L316.401,165.091z M318.139,167.2h0.703v-2.406c0-0.297,0.095-0.56,0.285-0.787
		c0.19-0.228,0.462-0.342,0.816-0.342c0.042,0,0.08,0.001,0.115,0.004c0.035,0.002,0.074,0.008,0.115,0.016v-0.742
		c-0.075-0.008-0.129-0.013-0.16-0.016c-0.031-0.003-0.053-0.004-0.066-0.004c-0.279,0-0.525,0.101-0.738,0.303
		c-0.214,0.202-0.348,0.373-0.402,0.514v-0.723h-0.668V167.2L318.139,167.2z M321.322,166.088c0-0.268,0.109-0.462,0.326-0.585
		c0.129-0.073,0.32-0.126,0.575-0.16l0.425-0.055c0.13-0.016,0.263-0.042,0.397-0.078s0.245-0.083,0.331-0.137v0.565
		c0,0.432-0.195,0.742-0.586,0.932c-0.231,0.114-0.471,0.172-0.719,0.172c-0.203,0-0.379-0.059-0.527-0.176
		C321.396,166.451,321.322,166.291,321.322,166.088L321.322,166.088L321.322,166.088z M321.904,164.809
		c-0.393,0.049-0.711,0.181-0.953,0.394s-0.363,0.514-0.363,0.901c0,0.354,0.123,0.648,0.369,0.883s0.563,0.354,0.951,0.354
		c0.323,0,0.619-0.069,0.887-0.207c0.269-0.138,0.475-0.301,0.617-0.488c0.023,0.167,0.064,0.295,0.121,0.387
		c0.109,0.172,0.285,0.258,0.527,0.258c0.1,0,0.178-0.004,0.234-0.012c0.058-0.008,0.141-0.027,0.25-0.059v-0.52
		c-0.044,0.008-0.086,0.014-0.125,0.018s-0.074,0.006-0.105,0.006c-0.096,0-0.159-0.022-0.189-0.066
		c-0.029-0.044-0.045-0.103-0.045-0.176v-2.41c0-0.396-0.151-0.688-0.456-0.875c-0.307-0.188-0.706-0.281-1.198-0.281
		c-0.424,0-0.796,0.101-1.117,0.303c-0.321,0.203-0.488,0.562-0.502,1.08h0.656c0.026-0.217,0.082-0.381,0.168-0.491
		c0.153-0.199,0.413-0.298,0.779-0.298c0.317,0,0.562,0.054,0.731,0.163s0.255,0.283,0.255,0.523c0,0.118-0.016,0.208-0.047,0.271
		c-0.055,0.114-0.162,0.182-0.324,0.203L321.904,164.809L321.904,164.809z M325.232,167.2h0.703v-2.219
		c0-0.539,0.109-0.912,0.326-1.117c0.218-0.206,0.459-0.309,0.725-0.309c0.292,0,0.491,0.098,0.598,0.293
		c0.068,0.13,0.102,0.337,0.102,0.621v2.73h0.715v-2.434c0-0.433,0.1-0.741,0.299-0.926c0.199-0.185,0.438-0.277,0.713-0.277
		c0.201,0,0.371,0.052,0.51,0.156c0.14,0.104,0.209,0.295,0.209,0.574v2.906h0.73v-2.785c0-0.37-0.055-0.664-0.164-0.883
		c-0.203-0.406-0.586-0.609-1.148-0.609c-0.263,0-0.5,0.054-0.711,0.162c-0.211,0.108-0.395,0.274-0.551,0.498
		c-0.094-0.183-0.197-0.32-0.312-0.414c-0.203-0.164-0.471-0.246-0.805-0.246c-0.294,0-0.557,0.079-0.789,0.238
		c-0.135,0.094-0.286,0.243-0.453,0.449v-0.594h-0.695V167.2L325.232,167.2z M331.896,167.2h0.703v-2.219
		c0-0.539,0.109-0.912,0.326-1.117c0.218-0.206,0.459-0.309,0.725-0.309c0.292,0,0.491,0.098,0.598,0.293
		c0.068,0.13,0.102,0.337,0.102,0.621v2.73h0.715v-2.434c0-0.433,0.1-0.741,0.299-0.926c0.199-0.185,0.438-0.277,0.713-0.277
		c0.201,0,0.371,0.052,0.51,0.156c0.14,0.104,0.209,0.295,0.209,0.574v2.906h0.73v-2.785c0-0.37-0.055-0.664-0.164-0.883
		c-0.203-0.406-0.586-0.609-1.148-0.609c-0.263,0-0.5,0.054-0.711,0.162c-0.211,0.108-0.395,0.274-0.551,0.498
		c-0.094-0.183-0.197-0.32-0.312-0.414c-0.203-0.164-0.471-0.246-0.805-0.246c-0.294,0-0.557,0.079-0.789,0.238
		c-0.135,0.094-0.286,0.243-0.453,0.449v-0.594h-0.695V167.2L331.896,167.2z M340.287,162.923c-0.585,0-1.059,0.209-1.421,0.629
		c-0.362,0.419-0.544,0.965-0.544,1.637c0,0.682,0.18,1.213,0.54,1.592c0.359,0.379,0.798,0.568,1.315,0.568
		c0.212,0,0.402-0.021,0.57-0.062c0.312-0.073,0.575-0.214,0.787-0.422c0.127-0.12,0.241-0.274,0.344-0.463
		c0.104-0.189,0.164-0.36,0.182-0.514h-0.691c-0.051,0.186-0.137,0.349-0.258,0.49c-0.217,0.243-0.508,0.365-0.872,0.365
		c-0.39,0-0.679-0.129-0.864-0.386c-0.186-0.257-0.285-0.599-0.299-1.024h3.043c0-0.422-0.021-0.729-0.062-0.922
		c-0.047-0.281-0.14-0.527-0.28-0.738c-0.145-0.222-0.355-0.402-0.633-0.541C340.868,162.992,340.582,162.923,340.287,162.923
		L340.287,162.923L340.287,162.923z M339.092,164.774c0.014-0.359,0.128-0.656,0.345-0.889c0.218-0.233,0.485-0.35,0.806-0.35
		c0.447,0,0.766,0.169,0.957,0.508c0.104,0.182,0.169,0.426,0.197,0.73H339.092L339.092,164.774z"/>
	<path d="M312.547,176.746l1.368,2.454h1.826l-2.339-3.726l2.202-3.472h-1.738l-1.319,2.344l-1.284-2.344h-1.797l2.202,3.53
		l-2.314,3.667h1.748L312.547,176.746L312.547,176.746z M316.271,176.979c0,0.749,0.271,1.337,0.814,1.765
		c0.543,0.428,1.289,0.642,2.236,0.642c0.928,0,1.646-0.217,2.154-0.652s0.763-0.981,0.763-1.638c0-0.642-0.215-1.131-0.644-1.47
		c-0.276-0.218-0.691-0.393-1.245-0.522l-1.263-0.298c-0.487-0.114-0.806-0.213-0.957-0.298c-0.233-0.127-0.35-0.319-0.35-0.576
		c0-0.28,0.118-0.498,0.355-0.654c0.237-0.156,0.554-0.234,0.951-0.234c0.357,0,0.655,0.06,0.896,0.181
		c0.36,0.182,0.555,0.49,0.581,0.923h1.445c-0.026-0.765-0.311-1.349-0.853-1.75c-0.542-0.402-1.197-0.603-1.965-0.603
		c-0.919,0-1.617,0.213-2.091,0.64c-0.474,0.426-0.711,0.962-0.711,1.606c0,0.706,0.242,1.226,0.728,1.558
		c0.286,0.198,0.812,0.382,1.578,0.552l0.779,0.171c0.456,0.098,0.789,0.21,0.999,0.337c0.21,0.13,0.315,0.314,0.315,0.552
		c0,0.407-0.215,0.685-0.644,0.835c-0.226,0.078-0.52,0.117-0.882,0.117c-0.605,0-1.032-0.148-1.281-0.444
		c-0.136-0.163-0.228-0.409-0.274-0.737H316.271L316.271,176.979z M323.292,179.2h5.098v-1.294h-3.594v-5.903h-1.504V179.2
		L323.292,179.2z"/>
	<polygon points="328.062,172.003 328.062,173.277 330.226,173.277 330.226,179.2 331.739,179.2 331.739,173.277 333.893,173.277 
		333.893,172.003 328.062,172.003 	"/>
	<line fill="none" stroke="#000000" stroke-miterlimit="10" x1="320.5" y1="215" x2="320.5" y2="267.1"/>
	<path d="M320.5,272.1l3-8l-3,3l0,0l-3-3L320.5,272.1z M320.5,272.1"/>
	<path fill="none" stroke="#000000" stroke-miterlimit="10" d="M320.5,272.1l3-8l-3,3l0,0l-3-3L320.5,272.1z M320.5,272.1"/>
	<path d="M218.606,297.894c-0.345,0.344-0.723,0.516-1.133,0.516c-0.605,0-0.964-0.271-1.074-0.811
		c-0.062-0.283-0.051-0.627,0.034-1.03c0.107-0.501,0.255-0.915,0.444-1.24c0.354-0.608,0.836-0.913,1.445-0.913
		c0.605,0,0.96,0.288,1.064,0.864c0.059,0.3,0.044,0.657-0.044,1.074C219.197,297.037,218.951,297.551,218.606,297.894
		L218.606,297.894z M214.632,301.085h0.879l0.566-2.671c0.14,0.237,0.278,0.405,0.415,0.503c0.231,0.173,0.543,0.259,0.938,0.259
		c0.501,0,0.973-0.154,1.416-0.464c0.7-0.488,1.17-1.302,1.411-2.441c0.179-0.843,0.11-1.492-0.205-1.946
		c-0.316-0.454-0.77-0.681-1.362-0.681c-0.4,0-0.77,0.098-1.108,0.293c-0.238,0.13-0.469,0.314-0.693,0.552l0.146-0.693h-0.854
		L214.632,301.085L214.632,301.085z M221.822,298.209c-0.155-0.146-0.205-0.347-0.149-0.601c0.071-0.335,0.259-0.579,0.562-0.732
		c0.179-0.091,0.433-0.158,0.762-0.2l0.547-0.068c0.166-0.02,0.338-0.052,0.518-0.098c0.179-0.046,0.329-0.103,0.449-0.171
		l-0.146,0.708c-0.117,0.54-0.444,0.93-0.981,1.167c-0.322,0.144-0.638,0.215-0.947,0.215
		C222.181,298.429,221.977,298.355,221.822,298.209L221.822,298.209z M222.742,296.007c-0.505,0.062-0.937,0.227-1.296,0.493
		s-0.592,0.643-0.696,1.128c-0.095,0.442-0.019,0.812,0.227,1.105c0.246,0.295,0.611,0.442,1.096,0.442
		c0.403,0,0.791-0.086,1.162-0.259s0.672-0.376,0.903-0.61c-0.017,0.208,0,0.369,0.049,0.483c0.091,0.215,0.288,0.322,0.591,0.322
		c0.124,0,0.222-0.005,0.295-0.015s0.181-0.034,0.325-0.073l0.142-0.649c-0.059,0.01-0.113,0.017-0.164,0.021
		s-0.095,0.008-0.134,0.008c-0.121,0-0.193-0.027-0.217-0.083s-0.027-0.129-0.007-0.22l0.64-3.013
		c0.104-0.495-0.01-0.859-0.342-1.094s-0.806-0.352-1.421-0.352c-0.531,0-1.024,0.126-1.479,0.378
		c-0.456,0.253-0.76,0.701-0.913,1.346h0.82c0.088-0.271,0.2-0.474,0.337-0.61c0.244-0.247,0.596-0.371,1.055-0.371
		c0.397,0,0.688,0.067,0.874,0.202c0.186,0.136,0.246,0.353,0.181,0.652c-0.029,0.146-0.072,0.259-0.127,0.337
		c-0.101,0.144-0.256,0.228-0.464,0.254L222.742,296.007L222.742,296.007z M226.292,299h0.879l0.635-3.008
		c0.081-0.371,0.271-0.699,0.569-0.984c0.298-0.284,0.668-0.427,1.111-0.427c0.052,0,0.099,0.002,0.142,0.005
		c0.042,0.003,0.089,0.01,0.142,0.02l0.195-0.928c-0.091-0.01-0.156-0.017-0.195-0.02s-0.067-0.005-0.083-0.005
		c-0.349,0-0.683,0.126-1.003,0.378c-0.321,0.253-0.533,0.467-0.637,0.643l0.19-0.903H227.4L226.292,299L226.292,299z
		 M229.622,297.359c-0.088,0.521-0.007,0.958,0.242,1.311c0.249,0.354,0.762,0.53,1.541,0.53c0.723,0,1.296-0.169,1.721-0.508
		s0.686-0.74,0.784-1.206c0.104-0.481,0.01-0.835-0.283-1.06c-0.186-0.144-0.578-0.291-1.177-0.444l-0.552-0.142
		c-0.241-0.062-0.418-0.134-0.532-0.215c-0.195-0.137-0.269-0.319-0.22-0.547c0.045-0.208,0.167-0.376,0.364-0.503
		s0.461-0.19,0.793-0.19c0.498,0,0.823,0.115,0.977,0.347c0.091,0.163,0.124,0.344,0.098,0.542h0.83
		c0.078-0.339,0.039-0.654-0.117-0.947c-0.251-0.462-0.77-0.693-1.558-0.693c-0.603,0-1.114,0.153-1.536,0.459
		s-0.685,0.706-0.789,1.201c-0.091,0.42,0.027,0.749,0.356,0.986c0.182,0.137,0.485,0.261,0.908,0.371l0.659,0.176
		c0.354,0.095,0.587,0.178,0.698,0.249c0.176,0.117,0.239,0.288,0.19,0.513c-0.062,0.296-0.232,0.515-0.51,0.656
		s-0.581,0.213-0.906,0.213c-0.547,0-0.9-0.142-1.06-0.425c-0.088-0.156-0.114-0.381-0.078-0.674H229.622L229.622,297.359z
		 M234.598,299h0.894l1.104-5.205h-0.894L234.598,299L234.598,299z M235.906,292.823h0.894l0.215-0.996h-0.894L235.906,292.823
		L235.906,292.823z M236.819,299h0.879l0.581-2.739c0.071-0.342,0.149-0.604,0.232-0.789c0.083-0.184,0.215-0.361,0.398-0.534
		c0.228-0.215,0.47-0.358,0.728-0.43c0.143-0.042,0.319-0.063,0.527-0.063c0.41,0,0.659,0.163,0.747,0.488
		c0.052,0.195,0.044,0.452-0.024,0.771L240.188,299h0.894l0.713-3.354c0.11-0.527,0.124-0.933,0.039-1.216
		c-0.15-0.518-0.596-0.776-1.338-0.776c-0.339,0-0.66,0.066-0.964,0.2s-0.613,0.354-0.925,0.659l0.156-0.742h-0.835L236.819,299
		L236.819,299z M245.354,293.678c-0.605,0-1.174,0.246-1.707,0.737s-0.891,1.175-1.077,2.051c-0.199,0.928-0.128,1.593,0.212,1.994
		c0.34,0.402,0.793,0.604,1.36,0.604c0.407,0,0.748-0.065,1.023-0.195s0.528-0.329,0.759-0.596c-0.144,0.72-0.306,1.219-0.488,1.499
		c-0.31,0.476-0.801,0.713-1.475,0.713c-0.427,0-0.718-0.098-0.874-0.293c-0.101-0.127-0.148-0.308-0.142-0.542h-0.894
		c-0.068,0.537,0.062,0.932,0.393,1.184c0.331,0.253,0.777,0.379,1.34,0.379c1.012,0,1.777-0.354,2.295-1.064
		c0.276-0.384,0.485-0.908,0.625-1.572l1.011-4.756h-0.811l-0.142,0.659c-0.124-0.218-0.257-0.384-0.4-0.498
		C246.102,293.778,245.765,293.678,245.354,293.678L245.354,293.678L245.354,293.678z M246.272,294.923
		c0.202,0.312,0.232,0.793,0.093,1.44c-0.091,0.43-0.243,0.806-0.454,1.128c-0.378,0.569-0.882,0.854-1.514,0.854
		c-0.404,0-0.692-0.154-0.867-0.462s-0.198-0.756-0.071-1.345c0.104-0.501,0.25-0.906,0.439-1.216
		c0.348-0.579,0.832-0.869,1.45-0.869C245.763,294.454,246.07,294.61,246.272,294.923L246.272,294.923z"/>
	<path d="M330.16,236.409c-0.154-0.146-0.204-0.347-0.149-0.601c0.072-0.335,0.259-0.58,0.562-0.732
		c0.18-0.091,0.434-0.158,0.762-0.2l0.547-0.068c0.166-0.02,0.339-0.052,0.518-0.098c0.18-0.046,0.329-0.103,0.449-0.171
		l-0.146,0.708c-0.117,0.54-0.444,0.929-0.981,1.167c-0.322,0.143-0.638,0.215-0.947,0.215
		C330.519,236.629,330.314,236.556,330.16,236.409L330.16,236.409z M331.08,234.207c-0.504,0.062-0.937,0.226-1.296,0.493
		c-0.359,0.267-0.592,0.643-0.696,1.128c-0.094,0.442-0.019,0.811,0.228,1.106c0.246,0.294,0.611,0.442,1.096,0.442
		c0.404,0,0.791-0.086,1.162-0.259c0.371-0.173,0.673-0.376,0.903-0.61c-0.016,0.208,0,0.369,0.049,0.483
		c0.092,0.215,0.288,0.322,0.591,0.322c0.124,0,0.223-0.005,0.296-0.015s0.182-0.034,0.324-0.073l0.142-0.649
		c-0.059,0.01-0.112,0.017-0.163,0.022s-0.096,0.007-0.135,0.007c-0.12,0-0.192-0.028-0.217-0.083
		c-0.024-0.056-0.027-0.129-0.008-0.22l0.64-3.013c0.104-0.495-0.01-0.859-0.342-1.094s-0.806-0.352-1.421-0.352
		c-0.53,0-1.023,0.126-1.479,0.378c-0.455,0.252-0.76,0.701-0.913,1.345h0.82c0.088-0.271,0.2-0.474,0.337-0.61
		c0.244-0.248,0.596-0.371,1.055-0.371c0.397,0,0.688,0.067,0.874,0.203c0.186,0.135,0.246,0.352,0.181,0.652
		c-0.029,0.146-0.071,0.259-0.127,0.337c-0.101,0.143-0.255,0.228-0.464,0.254L331.08,234.207L331.08,234.207z M334.605,237.2h0.879
		l0.581-2.739c0.072-0.342,0.149-0.605,0.232-0.789c0.083-0.184,0.216-0.362,0.397-0.535c0.229-0.215,0.471-0.358,0.728-0.43
		c0.144-0.042,0.319-0.063,0.527-0.063c0.41,0,0.659,0.163,0.747,0.488c0.053,0.195,0.044,0.452-0.024,0.771l-0.698,3.296h0.894
		l0.713-3.354c0.111-0.527,0.124-0.933,0.039-1.216c-0.149-0.518-0.596-0.776-1.338-0.776c-0.338,0-0.659,0.066-0.964,0.2
		c-0.305,0.133-0.613,0.353-0.926,0.659l0.156-0.742h-0.835L334.605,237.2L334.605,237.2z M341.283,236.409
		c-0.154-0.146-0.204-0.347-0.149-0.601c0.072-0.335,0.259-0.58,0.562-0.732c0.18-0.091,0.434-0.158,0.762-0.2l0.547-0.068
		c0.166-0.02,0.339-0.052,0.518-0.098c0.18-0.046,0.329-0.103,0.449-0.171l-0.146,0.708c-0.117,0.54-0.444,0.929-0.981,1.167
		c-0.322,0.143-0.638,0.215-0.947,0.215C341.642,236.629,341.438,236.556,341.283,236.409L341.283,236.409z M342.203,234.207
		c-0.504,0.062-0.937,0.226-1.296,0.493c-0.359,0.267-0.592,0.643-0.696,1.128c-0.094,0.442-0.019,0.811,0.228,1.106
		c0.246,0.294,0.611,0.442,1.096,0.442c0.404,0,0.791-0.086,1.162-0.259c0.371-0.173,0.673-0.376,0.903-0.61
		c-0.016,0.208,0,0.369,0.049,0.483c0.092,0.215,0.288,0.322,0.591,0.322c0.124,0,0.223-0.005,0.296-0.015s0.182-0.034,0.324-0.073
		l0.142-0.649c-0.059,0.01-0.112,0.017-0.163,0.022s-0.096,0.007-0.135,0.007c-0.12,0-0.192-0.028-0.217-0.083
		c-0.024-0.056-0.027-0.129-0.008-0.22l0.64-3.013c0.104-0.495-0.01-0.859-0.342-1.094s-0.806-0.352-1.421-0.352
		c-0.53,0-1.023,0.126-1.479,0.378c-0.455,0.252-0.76,0.701-0.913,1.345h0.82c0.088-0.271,0.2-0.474,0.337-0.61
		c0.244-0.248,0.596-0.371,1.055-0.371c0.397,0,0.688,0.067,0.874,0.203c0.186,0.135,0.246,0.352,0.181,0.652
		c-0.029,0.146-0.071,0.259-0.127,0.337c-0.101,0.143-0.255,0.228-0.464,0.254L342.203,234.207L342.203,234.207z M345.753,237.2
		h0.879l1.523-7.173h-0.879L345.753,237.2L345.753,237.2z M350.011,236.229l-0.498-4.258h-0.996l0.791,5.381
		c-0.071,0.117-0.183,0.296-0.334,0.537c-0.151,0.241-0.238,0.374-0.262,0.4c-0.068,0.078-0.146,0.144-0.234,0.198
		s-0.213,0.081-0.376,0.081c-0.052,0-0.111-0.005-0.178-0.015s-0.172-0.036-0.315-0.078l-0.171,0.801
		c0.092,0.026,0.17,0.044,0.234,0.054c0.065,0.01,0.16,0.015,0.283,0.015c0.508,0,0.897-0.146,1.167-0.439
		c0.271-0.293,0.803-1.107,1.597-2.441c0.336-0.566,0.757-1.299,1.265-2.197c0.681-1.195,1.118-1.96,1.313-2.295h-0.972
		L350.011,236.229L350.011,236.229z M352.975,235.56c-0.088,0.521-0.007,0.958,0.242,1.311c0.249,0.353,0.763,0.53,1.54,0.53
		c0.723,0,1.297-0.169,1.722-0.508c0.425-0.339,0.686-0.741,0.783-1.206c0.104-0.482,0.01-0.835-0.283-1.06
		c-0.186-0.144-0.577-0.292-1.177-0.444l-0.552-0.142c-0.24-0.062-0.418-0.134-0.532-0.215c-0.195-0.137-0.269-0.319-0.22-0.547
		c0.046-0.208,0.167-0.376,0.364-0.503s0.461-0.19,0.793-0.19c0.498,0,0.824,0.115,0.977,0.347c0.092,0.163,0.124,0.343,0.098,0.542
		h0.83c0.078-0.339,0.039-0.654-0.117-0.947c-0.25-0.462-0.77-0.693-1.558-0.693c-0.602,0-1.113,0.153-1.535,0.459
		c-0.422,0.306-0.685,0.706-0.789,1.201c-0.091,0.42,0.028,0.749,0.356,0.986c0.183,0.137,0.485,0.26,0.908,0.371l0.659,0.176
		c0.355,0.094,0.588,0.177,0.698,0.249c0.176,0.117,0.239,0.288,0.19,0.513c-0.062,0.296-0.231,0.515-0.51,0.657
		s-0.58,0.212-0.906,0.212c-0.547,0-0.899-0.142-1.06-0.425c-0.088-0.156-0.113-0.381-0.078-0.674H352.975L352.975,235.56z
		 M362.286,232.115c-0.312-0.174-0.654-0.261-1.025-0.261c-0.735,0-1.387,0.262-1.953,0.786c-0.566,0.524-0.938,1.206-1.118,2.046
		c-0.182,0.853-0.098,1.516,0.254,1.99s0.854,0.71,1.504,0.71c0.268,0,0.513-0.026,0.737-0.078c0.414-0.091,0.781-0.267,1.104-0.527
		c0.192-0.15,0.377-0.343,0.555-0.579c0.178-0.236,0.299-0.45,0.363-0.642h-0.864c-0.113,0.231-0.269,0.435-0.464,0.61
		c-0.335,0.303-0.732,0.454-1.191,0.454c-0.491,0-0.82-0.161-0.988-0.481c-0.168-0.321-0.203-0.747-0.105-1.277h3.833
		c0.114-0.527,0.17-0.912,0.166-1.152c0.017-0.352-0.035-0.659-0.156-0.923C362.815,232.514,362.599,232.289,362.286,232.115
		L362.286,232.115z M359.264,234.168c0.114-0.449,0.339-0.82,0.674-1.111c0.336-0.292,0.705-0.437,1.108-0.437
		c0.563,0,0.92,0.211,1.069,0.635c0.082,0.228,0.1,0.532,0.054,0.913H359.264L359.264,234.168z M369.43,232.815
		c-0.191-0.29-0.322-0.526-0.393-0.708c-0.07-0.183-0.084-0.373-0.042-0.571c0.033-0.146,0.098-0.282,0.195-0.405
		c0.189-0.241,0.464-0.361,0.825-0.361c0.238,0,0.41,0.076,0.518,0.229c0.107,0.153,0.141,0.335,0.098,0.547
		c-0.059,0.27-0.206,0.516-0.444,0.737C370.04,232.42,369.788,232.597,369.43,232.815L369.43,232.815L369.43,232.815z
		 M369.391,236.346c-0.296,0.166-0.625,0.249-0.986,0.249c-0.315,0-0.591-0.103-0.825-0.308s-0.311-0.498-0.229-0.879
		c0.072-0.352,0.241-0.649,0.508-0.894c0.176-0.163,0.526-0.397,1.05-0.703l1.201,1.978
		C369.927,235.994,369.688,236.18,369.391,236.346L369.391,236.346z M368.126,232.332c0.053,0.237,0.192,0.53,0.42,0.879
		c-0.621,0.332-1.056,0.608-1.304,0.83c-0.406,0.364-0.667,0.818-0.781,1.362c-0.107,0.504-0.034,0.958,0.218,1.36
		c0.252,0.402,0.751,0.603,1.496,0.603c0.505,0,0.977-0.117,1.416-0.352c0.248-0.134,0.536-0.345,0.864-0.635l0.503,0.82h1.133
		l-0.947-1.548c-0.016,0.081,0.104-0.089,0.359-0.51c0.256-0.422,0.46-0.862,0.612-1.321h-0.835
		c-0.088,0.231-0.161,0.411-0.222,0.54c-0.061,0.128-0.162,0.323-0.306,0.583l-0.977-1.562c0.453-0.264,0.785-0.497,0.996-0.698
		c0.365-0.345,0.596-0.747,0.693-1.206c0.082-0.394,0.013-0.732-0.207-1.016s-0.579-0.425-1.077-0.425
		c-0.523,0-0.974,0.152-1.35,0.457c-0.376,0.304-0.614,0.688-0.716,1.15C368.071,231.865,368.074,232.094,368.126,232.332
		L368.126,232.332z M380.074,232.115c-0.312-0.174-0.654-0.261-1.025-0.261c-0.735,0-1.387,0.262-1.953,0.786
		c-0.566,0.524-0.938,1.206-1.118,2.046c-0.182,0.853-0.098,1.516,0.254,1.99s0.854,0.71,1.504,0.71
		c0.268,0,0.513-0.026,0.737-0.078c0.414-0.091,0.781-0.267,1.104-0.527c0.192-0.15,0.377-0.343,0.555-0.579
		c0.178-0.236,0.299-0.45,0.363-0.642h-0.864c-0.113,0.231-0.269,0.435-0.464,0.61c-0.335,0.303-0.732,0.454-1.191,0.454
		c-0.491,0-0.82-0.161-0.988-0.481c-0.168-0.321-0.203-0.747-0.105-1.277h3.833c0.114-0.527,0.17-0.912,0.166-1.152
		c0.017-0.352-0.035-0.659-0.156-0.923C380.604,232.514,380.387,232.289,380.074,232.115L380.074,232.115z M377.052,234.168
		c0.114-0.449,0.339-0.82,0.674-1.111c0.336-0.292,0.705-0.437,1.108-0.437c0.563,0,0.92,0.211,1.069,0.635
		c0.082,0.228,0.1,0.532,0.054,0.913H377.052L377.052,234.168z M379.312,229.866l-1.025,1.411h0.674l1.436-1.411H379.312
		L379.312,229.866z M381.817,231.971l0.82,5.229h0.938l3.081-5.229h-0.962l-2.363,4.258l-0.493-4.258H381.817L381.817,231.971z
		 M387.416,236.409c-0.154-0.146-0.204-0.347-0.149-0.601c0.072-0.335,0.259-0.58,0.562-0.732c0.18-0.091,0.434-0.158,0.762-0.2
		l0.547-0.068c0.166-0.02,0.339-0.052,0.518-0.098c0.18-0.046,0.329-0.103,0.449-0.171l-0.146,0.708
		c-0.117,0.54-0.444,0.929-0.981,1.167c-0.322,0.143-0.638,0.215-0.947,0.215C387.774,236.629,387.57,236.556,387.416,236.409
		L387.416,236.409z M388.336,234.207c-0.504,0.062-0.937,0.226-1.296,0.493c-0.359,0.267-0.592,0.643-0.696,1.128
		c-0.094,0.442-0.019,0.811,0.228,1.106c0.246,0.294,0.611,0.442,1.096,0.442c0.404,0,0.791-0.086,1.162-0.259
		c0.371-0.173,0.673-0.376,0.903-0.61c-0.016,0.208,0,0.369,0.049,0.483c0.092,0.215,0.288,0.322,0.591,0.322
		c0.124,0,0.223-0.005,0.296-0.015s0.182-0.034,0.324-0.073l0.142-0.649c-0.059,0.01-0.112,0.017-0.163,0.022
		s-0.096,0.007-0.135,0.007c-0.12,0-0.192-0.028-0.217-0.083c-0.024-0.056-0.027-0.129-0.008-0.22l0.64-3.013
		c0.104-0.495-0.01-0.859-0.342-1.094s-0.806-0.352-1.421-0.352c-0.53,0-1.023,0.126-1.479,0.378
		c-0.455,0.252-0.76,0.701-0.913,1.345h0.82c0.088-0.271,0.2-0.474,0.337-0.61c0.244-0.248,0.596-0.371,1.055-0.371
		c0.397,0,0.688,0.067,0.874,0.203c0.186,0.135,0.246,0.352,0.181,0.652c-0.029,0.146-0.071,0.259-0.127,0.337
		c-0.101,0.143-0.255,0.228-0.464,0.254L388.336,234.207L388.336,234.207z M391.886,237.2h0.879l1.523-7.173h-0.879L391.886,237.2
		L391.886,237.2z M395.172,231.971l-0.757,3.555c-0.094,0.446-0.096,0.802-0.005,1.069c0.163,0.498,0.617,0.747,1.362,0.747
		c0.479,0,0.915-0.137,1.309-0.41c0.199-0.137,0.376-0.305,0.532-0.503l-0.171,0.771h0.83l1.108-5.229h-0.879l-0.547,2.568
		c-0.107,0.511-0.252,0.913-0.435,1.206c-0.338,0.547-0.813,0.82-1.426,0.82c-0.426,0-0.684-0.156-0.771-0.469
		c-0.049-0.169-0.045-0.388,0.01-0.654l0.737-3.472H395.172L395.172,231.971z M400.761,236.409
		c-0.154-0.146-0.204-0.347-0.149-0.601c0.072-0.335,0.259-0.58,0.562-0.732c0.18-0.091,0.434-0.158,0.762-0.2l0.547-0.068
		c0.166-0.02,0.339-0.052,0.518-0.098c0.18-0.046,0.329-0.103,0.449-0.171l-0.146,0.708c-0.117,0.54-0.444,0.929-0.981,1.167
		c-0.322,0.143-0.638,0.215-0.947,0.215C401.119,236.629,400.915,236.556,400.761,236.409L400.761,236.409z M401.681,234.207
		c-0.504,0.062-0.937,0.226-1.296,0.493c-0.359,0.267-0.592,0.643-0.696,1.128c-0.094,0.442-0.019,0.811,0.228,1.106
		c0.246,0.294,0.611,0.442,1.096,0.442c0.404,0,0.791-0.086,1.162-0.259c0.371-0.173,0.673-0.376,0.903-0.61
		c-0.016,0.208,0,0.369,0.049,0.483c0.092,0.215,0.288,0.322,0.591,0.322c0.124,0,0.223-0.005,0.296-0.015s0.182-0.034,0.324-0.073
		l0.142-0.649c-0.059,0.01-0.112,0.017-0.163,0.022s-0.096,0.007-0.135,0.007c-0.12,0-0.192-0.028-0.217-0.083
		c-0.024-0.056-0.027-0.129-0.008-0.22l0.64-3.013c0.104-0.495-0.01-0.859-0.342-1.094s-0.806-0.352-1.421-0.352
		c-0.53,0-1.023,0.126-1.479,0.378c-0.455,0.252-0.76,0.701-0.913,1.345h0.82c0.088-0.271,0.2-0.474,0.337-0.61
		c0.244-0.248,0.596-0.371,1.055-0.371c0.397,0,0.688,0.067,0.874,0.203c0.186,0.135,0.246,0.352,0.181,0.652
		c-0.029,0.146-0.071,0.259-0.127,0.337c-0.101,0.143-0.255,0.228-0.464,0.254L401.681,234.207L401.681,234.207z M406.49,231.971
		h-0.708l-0.151,0.718h0.708l-0.737,3.462c-0.071,0.335-0.056,0.608,0.047,0.818s0.358,0.315,0.769,0.315
		c0.127,0,0.247-0.007,0.359-0.02c0.112-0.013,0.222-0.034,0.329-0.063l0.146-0.693c-0.068,0.006-0.127,0.01-0.176,0.012
		c-0.049,0.001-0.094,0.002-0.137,0.002c-0.159,0-0.27-0.018-0.332-0.054c-0.11-0.062-0.146-0.184-0.107-0.366l0.728-3.413h0.835
		l0.151-0.718h-0.835l0.312-1.46h-0.889L406.49,231.971L406.49,231.971z M407.984,237.2h0.894l1.104-5.205h-0.894L407.984,237.2
		L407.984,237.2z M409.293,231.023h0.894l0.215-0.996h-0.894L409.293,231.023L409.293,231.023z M413.739,235.972
		c-0.311,0.441-0.758,0.662-1.341,0.662c-0.53,0-0.878-0.186-1.042-0.557s-0.188-0.835-0.071-1.392
		c0.124-0.58,0.352-1.074,0.682-1.484s0.764-0.615,1.301-0.615c0.605,0,0.981,0.241,1.128,0.723c0.092,0.306,0.085,0.703-0.02,1.191
		C414.263,235.04,414.05,235.531,413.739,235.972L413.739,235.972z M415.023,232.493c-0.369-0.449-0.892-0.674-1.565-0.674
		c-0.752,0-1.406,0.26-1.963,0.781c-0.557,0.521-0.929,1.221-1.118,2.1c-0.172,0.82-0.099,1.474,0.22,1.96
		c0.319,0.486,0.839,0.73,1.558,0.73c0.863,0,1.558-0.275,2.085-0.825c0.527-0.55,0.881-1.247,1.06-2.09
		C415.484,233.603,415.393,232.942,415.023,232.493L415.023,232.493z M415.768,237.2h0.879l0.581-2.739
		c0.072-0.342,0.149-0.605,0.232-0.789c0.083-0.184,0.216-0.362,0.397-0.535c0.229-0.215,0.471-0.358,0.728-0.43
		c0.144-0.042,0.319-0.063,0.527-0.063c0.41,0,0.659,0.163,0.747,0.488c0.053,0.195,0.044,0.452-0.024,0.771l-0.698,3.296h0.894
		l0.713-3.354c0.111-0.527,0.124-0.933,0.039-1.216c-0.149-0.518-0.596-0.776-1.338-0.776c-0.338,0-0.659,0.066-0.964,0.2
		c-0.305,0.133-0.613,0.353-0.926,0.659l0.156-0.742h-0.835L415.768,237.2L415.768,237.2z"/>
	<path d="M332.296,241.91c-0.811,0.953-1.363,1.67-1.66,2.148c-0.462,0.752-0.796,1.609-1.001,2.573
		c-0.052,0.257-0.091,0.527-0.117,0.811c-0.045,0.547-0.027,1.062,0.054,1.543c0.059,0.352,0.123,0.63,0.193,0.835
		s0.265,0.679,0.583,1.421h0.591c-0.286-0.905-0.46-1.599-0.522-2.08c-0.098-0.781-0.045-1.644,0.156-2.588
		c0.199-0.935,0.488-1.758,0.869-2.471c0.254-0.469,0.742-1.2,1.465-2.192H332.296L332.296,241.91z M336.71,244.114
		c-0.312-0.174-0.654-0.261-1.025-0.261c-0.735,0-1.387,0.262-1.953,0.786s-0.938,1.206-1.118,2.046
		c-0.182,0.853-0.098,1.516,0.254,1.989s0.854,0.711,1.504,0.711c0.268,0,0.513-0.026,0.737-0.078
		c0.414-0.092,0.781-0.267,1.104-0.527c0.192-0.149,0.377-0.343,0.555-0.579c0.178-0.235,0.299-0.449,0.363-0.642h-0.864
		c-0.113,0.231-0.269,0.435-0.464,0.61c-0.335,0.303-0.732,0.454-1.191,0.454c-0.491,0-0.82-0.16-0.988-0.481
		c-0.168-0.32-0.203-0.746-0.105-1.276h3.833c0.114-0.527,0.17-0.911,0.166-1.152c0.017-0.352-0.035-0.659-0.156-0.923
		C337.239,244.514,337.022,244.289,336.71,244.114L336.71,244.114z M333.688,246.168c0.114-0.449,0.339-0.819,0.674-1.111
		c0.336-0.291,0.705-0.437,1.108-0.437c0.563,0,0.92,0.212,1.069,0.635c0.082,0.228,0.1,0.532,0.054,0.913H333.688L333.688,246.168z
		 M337.936,249.2h0.879l0.581-2.739c0.072-0.342,0.149-0.604,0.232-0.789c0.083-0.184,0.216-0.361,0.397-0.534
		c0.229-0.215,0.471-0.358,0.728-0.43c0.144-0.042,0.319-0.063,0.527-0.063c0.41,0,0.659,0.162,0.747,0.488
		c0.053,0.195,0.044,0.452-0.024,0.771l-0.698,3.296h0.894l0.713-3.354c0.111-0.527,0.124-0.933,0.039-1.216
		c-0.149-0.518-0.596-0.776-1.338-0.776c-0.338,0-0.659,0.066-0.964,0.2s-0.613,0.353-0.926,0.659l0.156-0.742h-0.835L337.936,249.2
		L337.936,249.2z M347.364,243.971l-0.757,3.555c-0.094,0.445-0.096,0.803-0.005,1.069c0.163,0.498,0.617,0.747,1.362,0.747
		c0.479,0,0.915-0.137,1.309-0.41c0.199-0.137,0.376-0.305,0.532-0.503l-0.171,0.771h0.83l1.108-5.229h-0.879l-0.547,2.568
		c-0.107,0.511-0.252,0.913-0.435,1.206c-0.338,0.547-0.813,0.82-1.426,0.82c-0.426,0-0.684-0.156-0.771-0.469
		c-0.049-0.169-0.045-0.388,0.01-0.654l0.737-3.472H347.364L347.364,243.971z M353.121,243.971h-0.708l-0.151,0.718h0.708
		l-0.737,3.462c-0.071,0.335-0.056,0.607,0.047,0.817s0.358,0.315,0.769,0.315c0.127,0,0.247-0.007,0.359-0.02
		c0.112-0.014,0.222-0.034,0.329-0.063l0.146-0.693c-0.068,0.007-0.127,0.011-0.176,0.012c-0.049,0.002-0.094,0.003-0.137,0.003
		c-0.159,0-0.27-0.018-0.332-0.054c-0.11-0.062-0.146-0.185-0.107-0.366l0.728-3.413h0.835l0.151-0.718h-0.835l0.312-1.46h-0.889
		L353.121,243.971L353.121,243.971z M354.615,249.2h0.894l1.104-5.205h-0.894L354.615,249.2L354.615,249.2z M355.924,243.023h0.894
		l0.215-0.996h-0.894L355.924,243.023L355.924,243.023z M356.861,249.2h0.879l1.523-7.173h-0.879L356.861,249.2L356.861,249.2z
		 M359.059,249.2h0.894l1.104-5.205h-0.894L359.059,249.2L359.059,249.2z M360.367,243.023h0.894l0.215-0.996h-0.894
		L360.367,243.023L360.367,243.023z M361.305,247.56c-0.088,0.521-0.007,0.958,0.242,1.311c0.249,0.354,0.763,0.53,1.54,0.53
		c0.723,0,1.297-0.17,1.722-0.508c0.425-0.339,0.686-0.74,0.783-1.206c0.104-0.481,0.01-0.835-0.283-1.06
		c-0.186-0.144-0.577-0.291-1.177-0.444l-0.552-0.142c-0.24-0.062-0.418-0.134-0.532-0.215c-0.195-0.137-0.269-0.319-0.22-0.547
		c0.046-0.209,0.167-0.376,0.364-0.503s0.461-0.19,0.793-0.19c0.498,0,0.824,0.115,0.977,0.347c0.092,0.163,0.124,0.343,0.098,0.542
		h0.83c0.078-0.339,0.039-0.654-0.117-0.947c-0.25-0.463-0.77-0.693-1.558-0.693c-0.602,0-1.113,0.152-1.535,0.459
		c-0.422,0.306-0.685,0.706-0.789,1.201c-0.091,0.42,0.028,0.748,0.356,0.986c0.183,0.137,0.485,0.26,0.908,0.371l0.659,0.176
		c0.355,0.094,0.588,0.178,0.698,0.249c0.176,0.117,0.239,0.288,0.19,0.513c-0.062,0.296-0.231,0.515-0.51,0.656
		s-0.58,0.213-0.906,0.213c-0.547,0-0.899-0.142-1.06-0.425c-0.088-0.156-0.113-0.381-0.078-0.674H361.305L361.305,247.56z
		 M367.396,248.409c-0.154-0.146-0.204-0.347-0.149-0.601c0.072-0.336,0.259-0.58,0.562-0.732c0.18-0.092,0.434-0.158,0.762-0.2
		l0.547-0.068c0.166-0.02,0.339-0.052,0.518-0.098c0.18-0.046,0.329-0.103,0.449-0.171l-0.146,0.708
		c-0.117,0.54-0.444,0.929-0.981,1.167c-0.322,0.143-0.638,0.215-0.947,0.215C367.755,248.629,367.551,248.556,367.396,248.409
		L367.396,248.409z M368.316,246.207c-0.504,0.062-0.937,0.227-1.296,0.493s-0.592,0.643-0.696,1.128
		c-0.094,0.442-0.019,0.812,0.228,1.105c0.246,0.295,0.611,0.442,1.096,0.442c0.404,0,0.791-0.087,1.162-0.259
		c0.371-0.173,0.673-0.376,0.903-0.61c-0.016,0.208,0,0.369,0.049,0.483c0.092,0.215,0.288,0.322,0.591,0.322
		c0.124,0,0.223-0.005,0.296-0.015s0.182-0.034,0.324-0.073l0.142-0.649c-0.059,0.01-0.112,0.017-0.163,0.021
		s-0.096,0.008-0.135,0.008c-0.12,0-0.192-0.028-0.217-0.083c-0.024-0.056-0.027-0.129-0.008-0.22l0.64-3.013
		c0.104-0.495-0.01-0.859-0.342-1.094s-0.806-0.352-1.421-0.352c-0.53,0-1.023,0.126-1.479,0.378
		c-0.455,0.253-0.76,0.701-0.913,1.346h0.82c0.088-0.271,0.2-0.474,0.337-0.61c0.244-0.248,0.596-0.371,1.055-0.371
		c0.397,0,0.688,0.067,0.874,0.202c0.186,0.136,0.246,0.353,0.181,0.652c-0.029,0.146-0.071,0.259-0.127,0.337
		c-0.101,0.143-0.255,0.228-0.464,0.254L368.316,246.207L368.316,246.207z M371.842,249.2h0.879l0.581-2.739
		c0.072-0.342,0.149-0.604,0.232-0.789c0.083-0.184,0.216-0.361,0.397-0.534c0.229-0.215,0.471-0.358,0.728-0.43
		c0.144-0.042,0.319-0.063,0.527-0.063c0.41,0,0.659,0.162,0.747,0.488c0.053,0.195,0.044,0.452-0.024,0.771l-0.698,3.296h0.894
		l0.713-3.354c0.111-0.527,0.124-0.933,0.039-1.216c-0.149-0.518-0.596-0.776-1.338-0.776c-0.338,0-0.659,0.066-0.964,0.2
		s-0.613,0.353-0.926,0.659l0.156-0.742h-0.835L371.842,249.2L371.842,249.2z M378.688,243.971h-0.708l-0.151,0.718h0.708
		l-0.737,3.462c-0.071,0.335-0.056,0.607,0.047,0.817s0.358,0.315,0.769,0.315c0.127,0,0.247-0.007,0.359-0.02
		c0.112-0.014,0.222-0.034,0.329-0.063l0.146-0.693c-0.068,0.007-0.127,0.011-0.176,0.012c-0.049,0.002-0.094,0.003-0.137,0.003
		c-0.159,0-0.27-0.018-0.332-0.054c-0.11-0.062-0.146-0.185-0.107-0.366l0.728-3.413h0.835l0.151-0.718h-0.835l0.312-1.46H379
		L378.688,243.971L378.688,243.971z M382.984,249.2h0.879l1.523-7.173h-0.879L382.984,249.2L382.984,249.2z M389.518,244.114
		c-0.312-0.174-0.654-0.261-1.025-0.261c-0.735,0-1.387,0.262-1.953,0.786s-0.938,1.206-1.118,2.046
		c-0.182,0.853-0.098,1.516,0.254,1.989s0.854,0.711,1.504,0.711c0.268,0,0.513-0.026,0.737-0.078
		c0.414-0.092,0.781-0.267,1.104-0.527c0.192-0.149,0.377-0.343,0.555-0.579c0.178-0.235,0.299-0.449,0.363-0.642h-0.864
		c-0.113,0.231-0.269,0.435-0.464,0.61c-0.335,0.303-0.732,0.454-1.191,0.454c-0.491,0-0.82-0.16-0.988-0.481
		c-0.168-0.32-0.203-0.746-0.105-1.276h3.833c0.114-0.527,0.17-0.911,0.166-1.152c0.017-0.352-0.035-0.659-0.156-0.923
		C390.047,244.514,389.83,244.289,389.518,244.114L389.518,244.114z M386.495,246.168c0.114-0.449,0.339-0.819,0.674-1.111
		c0.336-0.291,0.705-0.437,1.108-0.437c0.563,0,0.92,0.212,1.069,0.635c0.082,0.228,0.1,0.532,0.054,0.913H386.495L386.495,246.168z
		 M398.026,244.249c-0.308-0.286-0.756-0.43-1.346-0.43c-0.689,0-1.312,0.255-1.867,0.767c-0.555,0.511-0.931,1.226-1.126,2.144
		c-0.159,0.749-0.088,1.373,0.213,1.872c0.301,0.5,0.793,0.75,1.477,0.75c0.609,0,1.143-0.16,1.602-0.481
		c0.459-0.32,0.811-0.827,1.055-1.521h-0.854c-0.162,0.387-0.374,0.692-0.635,0.915c-0.26,0.224-0.572,0.335-0.938,0.335
		c-0.475,0-0.786-0.18-0.933-0.537c-0.146-0.358-0.162-0.799-0.049-1.323c0.111-0.521,0.282-0.959,0.513-1.313
		c0.358-0.547,0.817-0.82,1.377-0.82c0.41,0,0.686,0.106,0.825,0.319c0.141,0.214,0.202,0.481,0.186,0.804h0.854
		C398.452,245.028,398.334,244.535,398.026,244.249L398.026,244.249z M402.055,247.972c-0.311,0.441-0.758,0.662-1.341,0.662
		c-0.53,0-0.878-0.186-1.042-0.557s-0.188-0.835-0.071-1.392c0.124-0.58,0.352-1.074,0.682-1.484s0.764-0.615,1.301-0.615
		c0.605,0,0.981,0.24,1.128,0.723c0.092,0.306,0.085,0.703-0.02,1.191C402.578,247.04,402.365,247.531,402.055,247.972
		L402.055,247.972z M403.339,244.493c-0.369-0.449-0.892-0.674-1.565-0.674c-0.752,0-1.406,0.261-1.963,0.781
		s-0.929,1.221-1.118,2.1c-0.172,0.82-0.099,1.474,0.22,1.96c0.319,0.487,0.839,0.73,1.558,0.73c0.863,0,1.558-0.275,2.085-0.825
		s0.881-1.247,1.06-2.09C403.8,245.604,403.708,244.942,403.339,244.493L403.339,244.493z M404.083,249.2h0.879l0.581-2.739
		c0.072-0.342,0.149-0.604,0.232-0.789c0.083-0.184,0.216-0.361,0.397-0.534c0.229-0.215,0.471-0.358,0.728-0.43
		c0.144-0.042,0.319-0.063,0.527-0.063c0.41,0,0.659,0.162,0.747,0.488c0.053,0.195,0.044,0.452-0.024,0.771l-0.698,3.296h0.894
		l0.713-3.354c0.111-0.527,0.124-0.933,0.039-1.216c-0.149-0.518-0.596-0.776-1.338-0.776c-0.338,0-0.659,0.066-0.964,0.2
		s-0.613,0.353-0.926,0.659l0.156-0.742h-0.835L404.083,249.2L404.083,249.2z M410.929,243.971h-0.708l-0.151,0.718h0.708
		l-0.737,3.462c-0.071,0.335-0.056,0.607,0.047,0.817s0.358,0.315,0.769,0.315c0.127,0,0.247-0.007,0.359-0.02
		c0.112-0.014,0.222-0.034,0.329-0.063l0.146-0.693c-0.068,0.007-0.127,0.011-0.176,0.012c-0.049,0.002-0.094,0.003-0.137,0.003
		c-0.159,0-0.27-0.018-0.332-0.054c-0.11-0.062-0.146-0.185-0.107-0.366l0.728-3.413h0.835l0.151-0.718h-0.835l0.312-1.46h-0.889
		L410.929,243.971L410.929,243.971z M416.759,244.114c-0.312-0.174-0.654-0.261-1.025-0.261c-0.735,0-1.387,0.262-1.953,0.786
		s-0.938,1.206-1.118,2.046c-0.182,0.853-0.098,1.516,0.254,1.989s0.854,0.711,1.504,0.711c0.268,0,0.513-0.026,0.737-0.078
		c0.414-0.092,0.781-0.267,1.104-0.527c0.192-0.149,0.377-0.343,0.555-0.579c0.178-0.235,0.299-0.449,0.363-0.642h-0.864
		c-0.113,0.231-0.269,0.435-0.464,0.61c-0.335,0.303-0.732,0.454-1.191,0.454c-0.491,0-0.82-0.16-0.988-0.481
		c-0.168-0.32-0.203-0.746-0.105-1.276h3.833c0.114-0.527,0.17-0.911,0.166-1.152c0.017-0.352-0.035-0.659-0.156-0.923
		C417.288,244.514,417.071,244.289,416.759,244.114L416.759,244.114z M413.736,246.168c0.114-0.449,0.339-0.819,0.674-1.111
		c0.336-0.291,0.705-0.437,1.108-0.437c0.563,0,0.92,0.212,1.069,0.635c0.082,0.228,0.1,0.532,0.054,0.913H413.736L413.736,246.168z
		 M419.801,246.52l-2.407,2.681h1.113l1.675-1.963l0.884,1.963h1.123l-1.274-2.681l2.3-2.524l-1.064-0.024l-1.606,1.841
		l-0.811-1.841h-1.138L419.801,246.52L419.801,246.52z M424.269,243.971h-0.708l-0.151,0.718h0.708l-0.737,3.462
		c-0.071,0.335-0.056,0.607,0.047,0.817s0.358,0.315,0.769,0.315c0.127,0,0.247-0.007,0.359-0.02
		c0.112-0.014,0.222-0.034,0.329-0.063l0.146-0.693c-0.068,0.007-0.127,0.011-0.176,0.012c-0.049,0.002-0.094,0.003-0.137,0.003
		c-0.159,0-0.27-0.018-0.332-0.054c-0.11-0.062-0.146-0.185-0.107-0.366l0.728-3.413h0.835l0.151-0.718h-0.835l0.312-1.46h-0.889
		L424.269,243.971L424.269,243.971z M430.099,244.114c-0.312-0.174-0.654-0.261-1.025-0.261c-0.735,0-1.387,0.262-1.953,0.786
		s-0.938,1.206-1.118,2.046c-0.182,0.853-0.098,1.516,0.254,1.989s0.854,0.711,1.504,0.711c0.268,0,0.513-0.026,0.737-0.078
		c0.414-0.092,0.781-0.267,1.104-0.527c0.192-0.149,0.377-0.343,0.555-0.579c0.178-0.235,0.299-0.449,0.363-0.642h-0.864
		c-0.113,0.231-0.269,0.435-0.464,0.61c-0.335,0.303-0.732,0.454-1.191,0.454c-0.491,0-0.82-0.16-0.988-0.481
		c-0.168-0.32-0.203-0.746-0.105-1.276h3.833c0.114-0.527,0.17-0.911,0.166-1.152c0.017-0.352-0.035-0.659-0.156-0.923
		C430.628,244.514,430.411,244.289,430.099,244.114L430.099,244.114z M427.076,246.168c0.114-0.449,0.339-0.819,0.674-1.111
		c0.336-0.291,0.705-0.437,1.108-0.437c0.563,0,0.92,0.212,1.069,0.635c0.082,0.228,0.1,0.532,0.054,0.913H427.076L427.076,246.168z
		 M431.202,251.241c0.805-0.944,1.354-1.659,1.65-2.144c0.466-0.756,0.801-1.615,1.006-2.578c0.078-0.368,0.127-0.75,0.145-1.147
		s-0.008-0.8-0.076-1.206c-0.055-0.329-0.115-0.587-0.181-0.774c-0.064-0.187-0.264-0.681-0.596-1.481h-0.591
		c0.287,0.904,0.459,1.598,0.518,2.08c0.098,0.781,0.048,1.643-0.151,2.583c-0.201,0.94-0.489,1.761-0.864,2.461
		c-0.247,0.462-0.735,1.197-1.465,2.207H431.202L431.202,251.241z"/>
	<path d="M384.669,297.359c-0.088,0.521-0.007,0.958,0.241,1.311c0.25,0.354,0.763,0.53,1.541,0.53c0.723,0,1.297-0.169,1.721-0.508
		c0.426-0.339,0.687-0.74,0.784-1.206c0.104-0.481,0.01-0.835-0.283-1.06c-0.186-0.144-0.578-0.291-1.177-0.444l-0.552-0.142
		c-0.241-0.062-0.418-0.134-0.532-0.215c-0.195-0.137-0.269-0.319-0.22-0.547c0.046-0.208,0.167-0.376,0.364-0.503
		c0.196-0.127,0.461-0.19,0.793-0.19c0.498,0,0.823,0.115,0.977,0.347c0.091,0.163,0.124,0.344,0.098,0.542h0.83
		c0.078-0.339,0.039-0.654-0.117-0.947c-0.251-0.462-0.77-0.693-1.558-0.693c-0.603,0-1.114,0.153-1.536,0.459
		c-0.421,0.306-0.684,0.706-0.788,1.201c-0.091,0.42,0.027,0.749,0.356,0.986c0.183,0.137,0.485,0.261,0.908,0.371l0.659,0.176
		c0.354,0.095,0.588,0.178,0.698,0.249c0.176,0.117,0.239,0.288,0.19,0.513c-0.062,0.296-0.231,0.515-0.511,0.656
		c-0.277,0.142-0.58,0.213-0.905,0.213c-0.547,0-0.9-0.142-1.06-0.425c-0.088-0.156-0.114-0.381-0.078-0.674H384.669
		L384.669,297.359z M393.98,293.914c-0.312-0.174-0.654-0.261-1.025-0.261c-0.735,0-1.387,0.262-1.953,0.786
		s-0.939,1.206-1.118,2.046c-0.183,0.853-0.098,1.516,0.254,1.989s0.853,0.711,1.504,0.711c0.267,0,0.513-0.026,0.737-0.078
		c0.413-0.091,0.781-0.267,1.104-0.527c0.192-0.149,0.377-0.343,0.555-0.579c0.177-0.235,0.298-0.449,0.363-0.642h-0.864
		c-0.114,0.231-0.269,0.435-0.464,0.61c-0.335,0.303-0.732,0.454-1.191,0.454c-0.491,0-0.821-0.16-0.988-0.481
		c-0.168-0.32-0.203-0.746-0.105-1.276h3.833c0.114-0.527,0.169-0.911,0.166-1.152c0.017-0.352-0.036-0.659-0.156-0.923
		C394.51,294.314,394.293,294.089,393.98,293.914L393.98,293.914z M390.958,295.968c0.114-0.449,0.339-0.819,0.674-1.111
		c0.335-0.291,0.705-0.437,1.108-0.437c0.563,0,0.92,0.212,1.069,0.635c0.081,0.228,0.1,0.532,0.054,0.913H390.958L390.958,295.968z
		 M393.219,291.666l-1.025,1.411h0.674l1.436-1.411H393.219L393.219,291.666z M395.23,299h0.879l0.635-3.008
		c0.081-0.371,0.271-0.699,0.568-0.984c0.299-0.284,0.669-0.427,1.111-0.427c0.052,0,0.1,0.002,0.142,0.005s0.09,0.01,0.142,0.02
		l0.195-0.928c-0.091-0.01-0.156-0.017-0.195-0.02s-0.066-0.005-0.083-0.005c-0.349,0-0.683,0.126-1.003,0.378
		c-0.321,0.253-0.533,0.467-0.638,0.643l0.19-0.903h-0.835L395.23,299L395.23,299z M398.536,299h0.894l1.104-5.205h-0.894
		L398.536,299L398.536,299z M399.845,292.823h0.894l0.215-0.996h-0.894L399.845,292.823L399.845,292.823z M401.873,298.209
		c-0.154-0.146-0.204-0.347-0.148-0.601c0.071-0.335,0.259-0.579,0.562-0.732c0.179-0.091,0.433-0.158,0.762-0.2l0.547-0.068
		c0.166-0.02,0.339-0.052,0.518-0.098s0.329-0.103,0.449-0.171l-0.146,0.708c-0.117,0.54-0.444,0.93-0.981,1.167
		c-0.322,0.144-0.638,0.215-0.947,0.215C402.232,298.429,402.028,298.355,401.873,298.209L401.873,298.209z M402.794,296.007
		c-0.505,0.062-0.937,0.227-1.296,0.493c-0.36,0.267-0.592,0.643-0.696,1.128c-0.095,0.442-0.019,0.812,0.228,1.105
		c0.245,0.295,0.61,0.442,1.096,0.442c0.403,0,0.791-0.086,1.162-0.259s0.672-0.376,0.903-0.61c-0.017,0.208,0,0.369,0.049,0.483
		c0.091,0.215,0.288,0.322,0.591,0.322c0.124,0,0.223-0.005,0.295-0.015c0.074-0.01,0.182-0.034,0.325-0.073l0.142-0.649
		c-0.059,0.01-0.113,0.017-0.164,0.021c-0.05,0.005-0.095,0.008-0.134,0.008c-0.12,0-0.192-0.027-0.218-0.083
		c-0.023-0.056-0.026-0.129-0.007-0.22l0.64-3.013c0.104-0.495-0.01-0.859-0.342-1.094s-0.806-0.352-1.421-0.352
		c-0.53,0-1.023,0.126-1.479,0.378c-0.456,0.253-0.76,0.701-0.913,1.346h0.82c0.088-0.271,0.2-0.474,0.337-0.61
		c0.244-0.247,0.596-0.371,1.055-0.371c0.397,0,0.688,0.067,0.874,0.202c0.186,0.136,0.246,0.353,0.181,0.652
		c-0.029,0.146-0.071,0.259-0.127,0.337c-0.101,0.144-0.256,0.228-0.464,0.254L402.794,296.007L402.794,296.007z M406.344,299h0.879
		l1.523-7.173h-0.879L406.344,299L406.344,299z M408.541,299h0.894l1.104-5.205h-0.894L408.541,299L408.541,299z M409.85,292.823
		h0.894l0.215-0.996h-0.894L409.85,292.823L409.85,292.823z M410.787,297.359c-0.088,0.521-0.008,0.958,0.242,1.311
		c0.248,0.354,0.762,0.53,1.54,0.53c0.723,0,1.296-0.169,1.722-0.508c0.424-0.339,0.686-0.74,0.783-1.206
		c0.104-0.481,0.01-0.835-0.283-1.06c-0.186-0.144-0.578-0.291-1.177-0.444l-0.552-0.142c-0.241-0.062-0.418-0.134-0.532-0.215
		c-0.195-0.137-0.269-0.319-0.22-0.547c0.046-0.208,0.167-0.376,0.363-0.503c0.197-0.127,0.462-0.19,0.794-0.19
		c0.498,0,0.823,0.115,0.977,0.347c0.091,0.163,0.124,0.344,0.098,0.542h0.83c0.078-0.339,0.039-0.654-0.117-0.947
		c-0.251-0.462-0.77-0.693-1.558-0.693c-0.603,0-1.114,0.153-1.535,0.459c-0.422,0.306-0.685,0.706-0.789,1.201
		c-0.091,0.42,0.027,0.749,0.356,0.986c0.183,0.137,0.485,0.261,0.908,0.371l0.659,0.176c0.354,0.095,0.588,0.178,0.698,0.249
		c0.176,0.117,0.239,0.288,0.19,0.513c-0.062,0.296-0.232,0.515-0.51,0.656c-0.279,0.142-0.581,0.213-0.906,0.213
		c-0.547,0-0.9-0.142-1.06-0.425c-0.088-0.156-0.114-0.381-0.078-0.674H410.787L410.787,297.359z M416.879,298.209
		c-0.155-0.146-0.205-0.347-0.149-0.601c0.071-0.335,0.259-0.579,0.562-0.732c0.179-0.091,0.433-0.158,0.762-0.2l0.547-0.068
		c0.166-0.02,0.339-0.052,0.518-0.098s0.329-0.103,0.449-0.171l-0.146,0.708c-0.117,0.54-0.444,0.93-0.981,1.167
		c-0.322,0.144-0.638,0.215-0.947,0.215C417.237,298.429,417.033,298.355,416.879,298.209L416.879,298.209z M417.799,296.007
		c-0.505,0.062-0.937,0.227-1.297,0.493c-0.359,0.267-0.591,0.643-0.695,1.128c-0.095,0.442-0.019,0.812,0.227,1.105
		c0.246,0.295,0.611,0.442,1.097,0.442c0.403,0,0.791-0.086,1.162-0.259s0.672-0.376,0.903-0.61c-0.017,0.208,0,0.369,0.049,0.483
		c0.091,0.215,0.288,0.322,0.591,0.322c0.124,0,0.222-0.005,0.296-0.015c0.072-0.01,0.181-0.034,0.324-0.073l0.142-0.649
		c-0.059,0.01-0.113,0.017-0.163,0.021c-0.051,0.005-0.096,0.008-0.135,0.008c-0.12,0-0.193-0.027-0.217-0.083
		c-0.025-0.056-0.027-0.129-0.008-0.22l0.64-3.013c0.104-0.495-0.01-0.859-0.342-1.094s-0.806-0.352-1.421-0.352
		c-0.53,0-1.023,0.126-1.479,0.378c-0.456,0.253-0.76,0.701-0.913,1.346h0.82c0.088-0.271,0.2-0.474,0.337-0.61
		c0.244-0.247,0.596-0.371,1.055-0.371c0.397,0,0.688,0.067,0.874,0.202c0.186,0.136,0.246,0.353,0.181,0.652
		c-0.029,0.146-0.071,0.259-0.127,0.337c-0.101,0.144-0.256,0.228-0.464,0.254L417.799,296.007L417.799,296.007z M422.608,293.771
		H421.9l-0.151,0.718h0.708l-0.737,3.462c-0.071,0.335-0.056,0.607,0.046,0.817c0.104,0.21,0.359,0.315,0.77,0.315
		c0.127,0,0.246-0.007,0.359-0.02c0.111-0.013,0.222-0.034,0.329-0.063l0.146-0.693c-0.068,0.007-0.127,0.011-0.176,0.012
		c-0.049,0.002-0.095,0.003-0.137,0.003c-0.159,0-0.271-0.018-0.332-0.054c-0.11-0.062-0.146-0.184-0.107-0.366l0.728-3.413h0.835
		l0.151-0.718h-0.835l0.312-1.46h-0.889L422.608,293.771L422.608,293.771z M424.103,299h0.894l1.104-5.205h-0.894L424.103,299
		L424.103,299z M425.411,292.823h0.894l0.215-0.996h-0.894L425.411,292.823L425.411,292.823z M429.857,297.771
		c-0.312,0.441-0.758,0.662-1.341,0.662c-0.53,0-0.878-0.186-1.042-0.557c-0.165-0.371-0.188-0.835-0.071-1.392
		c0.124-0.579,0.351-1.074,0.681-1.484c0.331-0.41,0.765-0.615,1.302-0.615c0.605,0,0.981,0.241,1.128,0.723
		c0.091,0.306,0.085,0.703-0.02,1.191C430.38,296.84,430.168,297.331,429.857,297.771L429.857,297.771z M431.141,294.293
		c-0.369-0.449-0.891-0.674-1.564-0.674c-0.752,0-1.406,0.261-1.963,0.781s-0.93,1.221-1.118,2.1c-0.173,0.82-0.1,1.474,0.22,1.96
		c0.319,0.487,0.838,0.73,1.558,0.73c0.862,0,1.558-0.275,2.085-0.825s0.881-1.247,1.06-2.09
		C431.603,295.403,431.511,294.742,431.141,294.293L431.141,294.293z M431.886,299h0.879l0.581-2.739
		c0.071-0.342,0.148-0.604,0.232-0.789c0.082-0.184,0.215-0.361,0.397-0.534c0.228-0.215,0.471-0.358,0.728-0.43
		c0.144-0.042,0.319-0.063,0.527-0.063c0.41,0,0.659,0.163,0.747,0.488c0.052,0.195,0.044,0.452-0.024,0.771L435.255,299h0.894
		l0.713-3.354c0.11-0.527,0.124-0.933,0.039-1.216c-0.149-0.518-0.596-0.776-1.338-0.776c-0.339,0-0.66,0.066-0.965,0.2
		c-0.304,0.134-0.612,0.354-0.925,0.659l0.156-0.742h-0.835L431.886,299L431.886,299z"/>
</g>
</svg>
